<svg width="2796" height="2800" viewBox="0 0 2796 2800" fill="none" xmlns="http://www.w3.org/2000/svg">
<g clip-path="url(#clip0_0_993)">
<path d="M2471.85 2400.59C2414.48 2460.7 2360.19 2499.46 2317.31 2530.09C1813.16 2890.09 1216.62 2785.15 1089.83 2759.52C902.621 2721.68 540.731 2648.52 279.091 2342.33C-116.739 1879.06 -55.099 1149.21 251.931 667.42C308.101 579.29 604.761 90.1603 1207.72 11.7203C1572.63 -35.7497 1998 60.0003 2306 316.83C2952.64 856 2906.61 1945.09 2471.85 2400.59Z" fill="url(#paint0_linear_0_993)"/>
<path d="M699.19 15.0497C707.37 1.17971 731 8.59971 731 25.0597C731.22 184.26 745.74 602.86 883.3 870.06C1107.3 1305.06 1161.71 1904.2 871.92 2104.22C872 2104.19 -192.43 1526.47 699.19 15.0497Z" fill="#91B3FA"/>
<path opacity="0.43" d="M672.94 233.001C672.34 236.711 671.87 241.411 671.37 245.711L670.06 258.941L667.76 285.451C666.307 303.131 664.973 320.824 663.76 338.531C661.35 373.951 659.55 409.401 657.97 444.851C654.883 515.771 653.19 586.724 652.89 657.711C652.76 728.711 653.76 799.631 656.39 870.531C659.02 941.431 663.17 1012.25 669.19 1082.92C675.57 1153.55 682.85 1224.09 692.49 1294.34C702.45 1364.53 714.51 1434.37 728.67 1503.85C743.26 1573.2 760.04 1642.11 780.17 1710.08L796.04 1760.82C798.79 1769.24 801.17 1777.82 804.21 1786.12L813.1 1811.12C824.42 1844.74 838.1 1877.45 851 1910.52V1910.63C851.135 1910.96 851.204 1911.31 851.204 1911.67C851.203 1912.02 851.133 1912.37 850.996 1912.7C850.86 1913.03 850.66 1913.33 850.408 1913.58C850.157 1913.83 849.858 1914.03 849.53 1914.16C849.202 1914.3 848.85 1914.37 848.495 1914.36C848.14 1914.36 847.788 1914.29 847.461 1914.16C847.133 1914.02 846.835 1913.82 846.584 1913.57C846.334 1913.32 846.135 1913.02 846 1912.69L824.71 1863.69L819.44 1851.42C817.66 1847.33 816.2 1843.12 814.56 1838.99L804.99 1814.05L795.42 1789.1C792.15 1780.82 789.54 1772.3 786.57 1763.9C780.88 1747.03 774.85 1730.26 769.42 1713.29C748.13 1645.29 730.17 1576.29 714.42 1506.8C707.11 1471.94 699.82 1437.06 693.87 1401.94C690.73 1384.41 687.49 1366.94 684.87 1349.27L676.7 1296.48C666.79 1225.94 658.59 1155.17 652.82 1084.2C647.05 1013.23 643.4 942.141 641 871.001C640.52 853.221 639.86 835.431 639.54 817.641L638.69 764.271V710.891C638.76 693.101 639.1 675.311 639.29 657.531C640.53 586.381 643.02 515.251 647.44 444.241C649.8 408.751 652.38 373.241 655.57 337.841C657.2 320.131 658.85 302.421 660.79 284.731L663.88 258.221L665.58 244.961C666.28 240.471 666.7 236.321 667.77 231.301C667.903 230.605 668.306 229.99 668.892 229.591C669.478 229.193 670.199 229.044 670.895 229.176C671.591 229.309 672.206 229.712 672.605 230.299C673.003 230.885 673.153 231.605 673.02 232.301L672.94 233.001Z" fill="white"/>
<path d="M795.54 2692.82C795.54 2692.82 922.38 2441 789.2 2028.4C665.62 1645.62 343.88 738.46 362.71 354.88C363.55 337.88 340.47 329.15 332.6 343.52C248.23 497.69 69.36 903.79 149.7 1463.07C253.3 2184.28 795.54 2692.82 795.54 2692.82Z" fill="#BDD0FB"/>
<path opacity="0.45" d="M311.92 691.191C308.68 701.001 306 711.001 303.64 721.101C302.4 726.101 301.35 731.201 300.21 736.241L297.14 751.451C293.14 771.751 289.943 792.177 287.55 812.731C282.4 853.731 280.25 895.111 279.49 936.391C278.73 977.671 280.16 1019 283.04 1060.19C285.92 1101.38 290.28 1142.45 296.4 1183.28C308.489 1264.97 325.723 1345.82 348 1425.34L356.33 1455.17L365.33 1484.79C371.16 1504.6 377.88 1524.12 384.33 1543.79C397.52 1582.97 411.16 1622.14 424.96 1661.17C452.7 1739.22 481.366 1816.95 510.96 1894.35C525.673 1933.08 540.616 1971.73 555.79 2010.29L601.1 2126C616.29 2164.57 631.43 2203.19 646.22 2242C661.01 2280.81 675.72 2319.6 689.22 2358.9C702.72 2398.2 715.64 2437.75 726.35 2477.98C731.66 2498.1 736.48 2518.37 740.35 2538.83C744.09 2559.33 747.07 2579.98 748.81 2600.75C748.842 2601.07 748.812 2601.4 748.719 2601.71C748.626 2602.02 748.473 2602.31 748.269 2602.56C748.065 2602.81 747.813 2603.01 747.528 2603.17C747.243 2603.32 746.931 2603.42 746.61 2603.45C746.288 2603.48 745.963 2603.45 745.653 2603.36C745.343 2603.27 745.055 2603.11 744.804 2602.91C744.553 2602.71 744.345 2602.45 744.192 2602.17C744.038 2601.88 743.942 2601.57 743.91 2601.25C741.49 2580.75 737.84 2560.43 733.45 2540.25C729.06 2520.07 723.75 2500.13 717.95 2480.31C706.33 2440.67 692.56 2401.64 678.1 2362.88C649.1 2285.36 617.3 2208.82 586.18 2131.96C523.31 1978.49 462.44 1823.96 407.03 1667.45C393.23 1628.28 379.36 1589.22 366.36 1549.72C359.98 1529.9 353.31 1510.18 347.55 1490.17L338.62 1460.25L330.38 1430.13C324.67 1410.13 319.98 1389.8 314.91 1369.61C312.46 1359.49 310.37 1349.29 308.09 1339.13C305.81 1328.97 303.54 1318.81 301.64 1308.57L295.64 1277.92L290.32 1247.14L287.71 1231.74L285.44 1216.29C283.99 1205.97 282.26 1195.71 281.09 1185.35C270.58 1102.74 265.95 1019.28 269.57 936.091L270.29 920.491C270.53 915.301 271 910.111 271.35 904.921L272.52 889.361L273.99 873.821C274.86 863.461 276.3 853.151 277.44 842.821C279 832.531 280.22 822.201 282 812.001C288.51 771.001 297.14 730.081 311.38 691.001C311.393 690.963 311.414 690.928 311.441 690.899C311.468 690.869 311.5 690.845 311.537 690.828C311.573 690.812 311.612 690.802 311.652 690.801C311.692 690.8 311.732 690.806 311.77 690.821C311.833 690.856 311.882 690.912 311.909 690.979C311.937 691.047 311.94 691.121 311.92 691.191Z" fill="white"/>
<path d="M1140.92 2124.26H141.66V1971H1140.92C1119.54 1971 1119.54 2124.26 1140.92 2124.26Z" fill="url(#paint1_linear_0_993)"/>
<path d="M141.66 2085.91V2015.77C141.66 1991.05 161.41 1971 185.77 1971H1136.71C1155.87 1971 1171.4 1959.1 1171.4 1944.42C1171.4 1939.96 1166.68 1936.35 1160.86 1936.35H121.55C97.7201 1936.35 59.8701 1965.06 59.8701 2000.49V2098.49C59.8701 2131.89 96.6101 2158.96 119.08 2158.96H1155.39C1164.23 2158.96 1171.39 2153.47 1171.39 2146.7C1171.39 2134.33 1158.31 2124.31 1142.17 2124.31H179.45C158.58 2124.26 141.66 2107.09 141.66 2085.91Z" fill="url(#paint2_linear_0_993)"/>
<path d="M1106.32 2005.81H169.37C168.509 2005.76 167.699 2005.39 167.106 2004.76C166.513 2004.14 166.183 2003.31 166.183 2002.45C166.183 2001.58 166.513 2000.75 167.106 2000.13C167.699 1999.5 168.509 1999.13 169.37 1999.08H1106.37C1106.83 1999.06 1107.28 1999.12 1107.71 1999.28C1108.14 1999.44 1108.54 1999.68 1108.87 2000C1109.2 2000.31 1109.47 2000.69 1109.65 2001.11C1109.83 2001.53 1109.92 2001.99 1109.92 2002.45C1109.92 2002.9 1109.83 2003.36 1109.65 2003.78C1109.47 2004.2 1109.2 2004.58 1108.87 2004.89C1108.54 2005.21 1108.14 2005.45 1107.71 2005.61C1107.28 2005.77 1106.83 2005.84 1106.37 2005.81H1106.32Z" fill="white"/>
<path d="M1106.32 2028.56H169.37C168.509 2028.51 167.699 2028.14 167.106 2027.51C166.513 2026.89 166.183 2026.06 166.183 2025.2C166.183 2024.33 166.513 2023.5 167.106 2022.88C167.699 2022.25 168.509 2021.88 169.37 2021.83H1106.37C1106.83 2021.81 1107.28 2021.87 1107.71 2022.03C1108.14 2022.19 1108.54 2022.43 1108.87 2022.75C1109.2 2023.06 1109.47 2023.44 1109.65 2023.86C1109.83 2024.28 1109.92 2024.74 1109.92 2025.2C1109.92 2025.65 1109.83 2026.11 1109.65 2026.53C1109.47 2026.95 1109.2 2027.33 1108.87 2027.64C1108.54 2027.96 1108.14 2028.2 1107.71 2028.36C1107.28 2028.52 1106.83 2028.59 1106.37 2028.56H1106.32Z" fill="white"/>
<path d="M1106.32 2051.31H169.37C168.509 2051.26 167.699 2050.89 167.106 2050.26C166.513 2049.64 166.183 2048.81 166.183 2047.95C166.183 2047.08 166.513 2046.25 167.106 2045.63C167.699 2045 168.509 2044.63 169.37 2044.58H1106.37C1106.83 2044.56 1107.28 2044.62 1107.71 2044.78C1108.14 2044.94 1108.54 2045.18 1108.87 2045.5C1109.2 2045.81 1109.47 2046.19 1109.65 2046.61C1109.83 2047.03 1109.92 2047.49 1109.92 2047.95C1109.92 2048.4 1109.83 2048.86 1109.65 2049.28C1109.47 2049.7 1109.2 2050.08 1108.87 2050.39C1108.54 2050.71 1108.14 2050.95 1107.71 2051.11C1107.28 2051.27 1106.83 2051.34 1106.37 2051.31H1106.32Z" fill="white"/>
<path d="M1106.32 2074.06H169.37C168.509 2074.01 167.699 2073.64 167.106 2073.01C166.513 2072.39 166.183 2071.56 166.183 2070.7C166.183 2069.83 166.513 2069 167.106 2068.38C167.699 2067.75 168.509 2067.38 169.37 2067.33H1106.37C1106.83 2067.31 1107.28 2067.37 1107.71 2067.53C1108.14 2067.69 1108.54 2067.93 1108.87 2068.25C1109.2 2068.56 1109.47 2068.94 1109.65 2069.36C1109.83 2069.78 1109.92 2070.24 1109.92 2070.7C1109.92 2071.15 1109.83 2071.61 1109.65 2072.03C1109.47 2072.45 1109.2 2072.83 1108.87 2073.14C1108.54 2073.46 1108.14 2073.7 1107.71 2073.86C1107.28 2074.02 1106.83 2074.09 1106.37 2074.06H1106.32Z" fill="white"/>
<path d="M1106.32 2096.81H169.37C168.509 2096.76 167.699 2096.39 167.106 2095.76C166.513 2095.14 166.183 2094.31 166.183 2093.45C166.183 2092.58 166.513 2091.75 167.106 2091.13C167.699 2090.5 168.509 2090.13 169.37 2090.08H1106.37C1106.83 2090.06 1107.28 2090.12 1107.71 2090.28C1108.14 2090.44 1108.54 2090.68 1108.87 2091C1109.2 2091.31 1109.47 2091.69 1109.65 2092.11C1109.83 2092.53 1109.92 2092.99 1109.92 2093.45C1109.92 2093.9 1109.83 2094.36 1109.65 2094.78C1109.47 2095.2 1109.2 2095.58 1108.87 2095.89C1108.54 2096.21 1108.14 2096.45 1107.71 2096.61C1107.28 2096.77 1106.83 2096.84 1106.37 2096.81H1106.32Z" fill="white"/>
<path d="M1273.52 2461.38H42.7686C33.932 2461.38 26.7686 2468.54 26.7686 2477.38V2683.93C26.7686 2692.77 33.932 2699.93 42.7686 2699.93H1273.52C1282.36 2699.93 1289.52 2692.77 1289.52 2683.93V2477.38C1289.52 2468.54 1282.36 2461.38 1273.52 2461.38Z" fill="url(#paint3_linear_0_993)"/>
<path d="M261.05 2488.79H175.24C172.059 2488.79 169.48 2491.37 169.48 2494.55V2666.75C169.48 2669.93 172.059 2672.51 175.24 2672.51H261.05C264.231 2672.51 266.81 2669.93 266.81 2666.75V2494.55C266.81 2491.37 264.231 2488.79 261.05 2488.79Z" fill="url(#paint4_linear_0_993)"/>
<path d="M370.82 2488.79H312.38C309.198 2488.79 306.62 2491.37 306.62 2494.55V2666.75C306.62 2669.93 309.198 2672.51 312.38 2672.51H370.82C374.001 2672.51 376.58 2669.93 376.58 2666.75V2494.55C376.58 2491.37 374.001 2488.79 370.82 2488.79Z" fill="url(#paint5_linear_0_993)"/>
<path d="M1280.7 2181.26V2232.88C1280.7 2241.73 1275.54 2250.16 1266.56 2255.96L1257.69 2261.68C1250.4 2266.39 1251.93 2275.12 1260.6 2278.26C1266.31 2280.34 1267.38 2286.08 1262.6 2289.26L1251.42 2296.7C1244.1 2301.57 1244.09 2310.1 1251.42 2314.98L1259.42 2320.35C1266.35 2324.99 1266.15 2333.13 1259 2337.57L1250.37 2342.93C1244.37 2346.64 1243.37 2353.22 1248.1 2357.85L1252.85 2362.5C1254.46 2363.98 1255.75 2365.78 1256.66 2367.77C1257.56 2369.77 1258.05 2371.92 1258.1 2374.11V2455.62H88.3115V2176.36L1280.7 2181.26Z" fill="#BDD0FB"/>
<path opacity="0.78" d="M128.84 2241H1239.69C1242.11 2241 1244.07 2239.54 1244.07 2237.73C1244.07 2235.92 1242.07 2234.46 1239.69 2234.46H128.84C126.42 2234.46 124.46 2235.93 124.46 2237.73C124.46 2239.53 126.42 2241 128.84 2241Z" fill="white"/>
<path opacity="0.78" d="M128.84 2289.64H1213.4C1215.82 2289.64 1217.78 2288.17 1217.78 2286.37C1217.78 2284.57 1215.78 2283.1 1213.4 2283.1H128.84C126.42 2283.1 124.46 2284.56 124.46 2286.37C124.46 2288.18 126.42 2289.64 128.84 2289.64Z" fill="white"/>
<path opacity="0.78" d="M128.84 2325.42H1199.92C1202.34 2325.42 1204.3 2323.96 1204.3 2322.15C1204.3 2320.34 1202.3 2318.88 1199.92 2318.88H128.84C126.42 2318.88 124.46 2320.34 124.46 2322.15C124.46 2323.96 126.42 2325.42 128.84 2325.42Z" fill="white"/>
<path d="M67.0998 2158.55H1306.29C1315.73 2158.55 1324.16 2163.7 1325.06 2170.71C1326.06 2178.76 1317.63 2185.52 1307.06 2185.52H158C137.82 2185.52 120.38 2196.07 116.19 2210.79C97.3898 2276.79 98.8098 2345.5 116.52 2416.39C120.62 2432.83 139.9 2444.75 162.31 2444.75H1283.58C1293.02 2444.75 1301.46 2449.9 1302.35 2456.91C1303.35 2464.96 1294.93 2471.73 1284.35 2471.73H75.3098C46.3998 2471.73 21.5098 2456.33 16.3098 2435.11C-4.56018 2349.11 -6.39018 2266.55 16.3098 2188.45C21.3998 2170.94 42.3798 2158.55 66.3898 2158.55H67.0998Z" fill="url(#paint6_linear_0_993)"/>
<path d="M1781.73 1211.44H500.94C478.633 1211.44 460.55 1229.52 460.55 1251.83V2681.58C460.55 2703.89 478.633 2721.97 500.94 2721.97H1781.73C1804.04 2721.97 1822.12 2703.89 1822.12 2681.58V1251.83C1822.12 1229.52 1804.04 1211.44 1781.73 1211.44Z" fill="#91B3FA"/>
<path d="M1920.16 1458.41L1117.71 127.051L391.011 1488.79L1920.16 1458.41Z" fill="#91B3FA"/>
<path d="M829.52 2515.56H688.68C666.373 2515.56 648.29 2533.64 648.29 2555.95V2557.87C648.29 2580.18 666.373 2598.26 688.68 2598.26H829.52C851.827 2598.26 869.91 2580.18 869.91 2557.87V2555.95C869.91 2533.64 851.827 2515.56 829.52 2515.56Z" fill="#7D97F4"/>
<path d="M718.71 2618.01H577.87C555.563 2618.01 537.48 2636.09 537.48 2658.4V2660.32C537.48 2682.63 555.563 2700.71 577.87 2700.71H718.71C741.017 2700.71 759.1 2682.63 759.1 2660.32V2658.4C759.1 2636.09 741.017 2618.01 718.71 2618.01Z" fill="#7D97F4"/>
<path d="M664.99 2416.87H524.15C501.843 2416.87 483.76 2434.95 483.76 2457.26V2459.18C483.76 2481.49 501.843 2499.57 524.15 2499.57H664.99C687.297 2499.57 705.38 2481.49 705.38 2459.18V2457.26C705.38 2434.95 687.297 2416.87 664.99 2416.87Z" fill="#7D97F4"/>
<path d="M775.81 2316.96H634.97C612.663 2316.96 594.58 2335.04 594.58 2357.35V2359.27C594.58 2381.58 612.663 2399.66 634.97 2399.66H775.81C798.117 2399.66 816.2 2381.58 816.2 2359.27V2357.35C816.2 2335.04 798.117 2316.96 775.81 2316.96Z" fill="#7D97F4"/>
<path d="M718.71 2106.46H577.87C555.563 2106.46 537.48 2124.54 537.48 2146.85V2148.77C537.48 2171.08 555.563 2189.16 577.87 2189.16H718.71C741.017 2189.16 759.1 2171.08 759.1 2148.77V2146.85C759.1 2124.54 741.017 2106.46 718.71 2106.46Z" fill="#7D97F4"/>
<path d="M685.65 1906.54H544.81C522.503 1906.54 504.42 1924.62 504.42 1946.93V1948.85C504.42 1971.16 522.503 1989.24 544.81 1989.24H685.65C707.957 1989.24 726.04 1971.16 726.04 1948.85V1946.93C726.04 1924.62 707.957 1906.54 685.65 1906.54Z" fill="#7D97F4"/>
<path d="M698.55 1722.66H600.87C578.563 1722.66 560.48 1740.74 560.48 1763.05V1764.97C560.48 1787.28 578.563 1805.36 600.87 1805.36H698.55C720.857 1805.36 738.94 1787.28 738.94 1764.97V1763.05C738.94 1740.74 720.857 1722.66 698.55 1722.66Z" fill="#7D97F4"/>
<path d="M641.78 1619.6H500.94C478.633 1619.6 460.55 1637.68 460.55 1659.99V1661.91C460.55 1684.22 478.633 1702.3 500.94 1702.3H641.78C664.087 1702.3 682.17 1684.22 682.17 1661.91V1659.99C682.17 1637.68 664.087 1619.6 641.78 1619.6Z" fill="#7D97F4"/>
<path d="M460.55 2515.28H595.7C602.402 2515.29 608.827 2517.96 613.568 2522.7C618.309 2527.44 620.981 2533.86 621 2540.56V2572.71C620.984 2579.42 618.313 2585.84 613.571 2590.58C608.83 2595.32 602.404 2597.99 595.7 2598H460.55V2515.28Z" fill="#7D97F4"/>
<path d="M460.55 2218.8C462.03 2218.52 463.533 2218.38 465.04 2218.37H636.11C642.808 2218.39 649.226 2221.06 653.962 2225.8C658.698 2230.53 661.369 2236.95 661.39 2243.65V2275.8C661.369 2282.5 658.698 2288.92 653.962 2293.65C649.226 2298.39 642.808 2301.06 636.11 2301.08H465C463.493 2301.07 461.991 2300.93 460.51 2300.65L460.55 2218.8Z" fill="#7D97F4"/>
<path d="M460.55 2009.6C462.031 2009.33 463.534 2009.19 465.04 2009.18H636.11C642.807 2009.2 649.225 2011.87 653.961 2016.6C658.698 2021.34 661.369 2027.75 661.39 2034.45V2066.6C661.369 2073.3 658.698 2079.72 653.962 2084.45C649.226 2089.19 642.808 2091.86 636.11 2091.88H465C463.493 2091.87 461.99 2091.73 460.51 2091.45L460.55 2009.6Z" fill="#7D97F4"/>
<path d="M460.55 1810.06H595.7C602.402 1810.07 608.827 1812.74 613.568 1817.48C618.309 1822.22 620.981 1828.64 621 1835.34V1867.49C620.981 1874.19 618.313 1880.6 613.578 1885.34C608.843 1890.07 602.426 1892.74 595.73 1892.76H460.55V1810.06Z" fill="#7D97F4"/>
<path d="M460.37 1718.45H523.19C529.889 1718.47 536.308 1721.14 541.045 1725.88C545.782 1730.61 548.451 1737.03 548.47 1743.73V1775.87C548.451 1782.57 545.782 1788.99 541.045 1793.73C536.308 1798.46 529.889 1801.13 523.19 1801.15H460.37V1718.45Z" fill="#7D97F4"/>
<path d="M462.47 1543.55H623C636.9 1543.55 648.28 1552.45 648.28 1563.33V1588.48C648.28 1599.36 636.9 1608.26 623 1608.26H462.47V1543.55Z" fill="#7D97F4"/>
<path d="M1141.34 886.1C1206.45 886.1 1259.23 833.319 1259.23 768.21C1259.23 703.101 1206.45 650.32 1141.34 650.32C1076.23 650.32 1023.45 703.101 1023.45 768.21C1023.45 833.319 1076.23 886.1 1141.34 886.1Z" fill="white"/>
<path d="M1141.34 859.25C1191.62 859.25 1232.38 818.49 1232.38 768.21C1232.38 717.93 1191.62 677.17 1141.34 677.17C1091.06 677.17 1050.3 717.93 1050.3 768.21C1050.3 818.49 1091.06 859.25 1141.34 859.25Z" fill="url(#paint7_linear_0_993)"/>
<path d="M1339.9 2729.99H949.221V2120.82C949.221 2106.23 955.016 2092.24 965.331 2081.93C975.645 2071.61 989.634 2065.82 1004.22 2065.82H1278.88C1295.06 2065.82 1310.58 2072.25 1322.01 2083.69C1333.45 2095.13 1339.88 2110.64 1339.88 2126.82V2729.99H1339.9Z" fill="url(#paint8_linear_0_993)"/>
<path d="M777.67 1967.8H1053.93V1657.71H777.67V1967.8Z" fill="url(#paint9_linear_0_993)"/>
<path d="M919.848 1660.85L899.648 1661L902.033 1971.48L922.232 1971.33L919.848 1660.85Z" fill="white"/>
<path d="M1050.71 1778.24L782.101 1780.35L782.259 1800.55L1050.87 1798.44L1050.71 1778.24Z" fill="white"/>
<path d="M768.72 1983.24H1062.87C1065.4 1983.24 1067.46 1981.19 1067.46 1978.65V1956.94C1067.46 1954.41 1065.4 1952.35 1062.87 1952.35H768.72C766.185 1952.35 764.13 1954.41 764.13 1956.94V1978.65C764.13 1981.19 766.185 1983.24 768.72 1983.24Z" fill="white"/>
<path d="M769.46 1534.52H1045.72V1224.43H769.46V1534.52Z" fill="url(#paint10_linear_0_993)"/>
<path d="M911.641 1227.57L891.441 1227.72L893.826 1538.2L914.025 1538.05L911.641 1227.57Z" fill="white"/>
<path d="M1042.48 1344.98L773.878 1347.09L774.037 1367.29L1042.64 1365.18L1042.48 1344.98Z" fill="white"/>
<path d="M760.52 1549.97H1054.67C1057.2 1549.97 1059.26 1547.92 1059.26 1545.38V1523.67C1059.26 1521.14 1057.2 1519.08 1054.67 1519.08H760.52C757.985 1519.08 755.93 1521.14 755.93 1523.67V1545.38C755.93 1547.92 757.985 1549.97 760.52 1549.97Z" fill="white"/>
<path d="M1230.28 1963.33H1506.54V1653.24H1230.28V1963.33Z" fill="url(#paint11_linear_0_993)"/>
<path d="M1372.45 1656.37L1352.25 1656.53L1354.63 1967.01L1374.83 1966.85L1372.45 1656.37Z" fill="white"/>
<path d="M1503.32 1773.77L1234.71 1775.88L1234.87 1796.08L1503.48 1793.97L1503.32 1773.77Z" fill="white"/>
<path d="M1221.33 1978.78H1515.48C1518.01 1978.78 1520.07 1976.73 1520.07 1974.19V1952.48C1520.07 1949.95 1518.01 1947.89 1515.48 1947.89H1221.33C1218.79 1947.89 1216.74 1949.95 1216.74 1952.48V1974.19C1216.74 1976.73 1218.79 1978.78 1221.33 1978.78Z" fill="white"/>
<path d="M1222.07 1530.06H1498.33V1219.97H1222.07V1530.06Z" fill="url(#paint12_linear_0_993)"/>
<path d="M1364.23 1223.1L1344.03 1223.25L1346.42 1533.73L1366.62 1533.58L1364.23 1223.1Z" fill="white"/>
<path d="M1495.08 1340.5L1226.48 1342.61L1226.64 1362.8L1495.24 1360.7L1495.08 1340.5Z" fill="white"/>
<path d="M1213.12 1545.51H1507.27C1509.8 1545.51 1511.86 1543.45 1511.86 1540.92V1519.21C1511.86 1516.67 1509.8 1514.62 1507.27 1514.62H1213.12C1210.58 1514.62 1208.53 1516.67 1208.53 1519.21V1540.92C1208.53 1543.45 1210.58 1545.51 1213.12 1545.51Z" fill="white"/>
<path d="M1109.31 83.7512L1909.75 1440.75C1910.79 1442.52 1911.34 1444.53 1911.35 1446.58C1911.36 1448.63 1910.82 1450.64 1909.8 1452.41C1908.77 1454.19 1907.29 1455.66 1905.51 1456.67C1903.73 1457.68 1901.71 1458.2 1899.66 1458.18L1841.21 1457.56C1823.45 1457.37 1806.04 1452.59 1790.67 1443.68C1775.31 1434.76 1762.51 1422.03 1753.53 1406.7L1151.15 378.881C1150.14 377.152 1148.69 375.715 1146.96 374.713C1145.22 373.71 1143.26 373.175 1141.25 373.161C1139.25 373.147 1137.28 373.654 1135.53 374.632C1133.78 375.61 1132.32 377.026 1131.28 378.741L464.589 1480.74C463.397 1482.71 461.642 1484.28 459.55 1485.25C457.458 1486.22 455.125 1486.54 452.849 1486.17C410.039 1479.25 386.559 1432.46 406.599 1394L1089.1 84.2812C1090.05 82.4519 1091.48 80.9109 1093.23 79.8181C1094.98 78.7253 1096.99 78.1205 1099.05 78.0665C1101.11 78.0124 1103.15 78.511 1104.95 79.5106C1106.76 80.5102 1108.26 81.9744 1109.31 83.7512Z" fill="#7D97F4"/>
<path d="M1172.93 53.467L1085.48 103.957C1082.13 105.89 1080.98 110.171 1082.91 113.519L1924.2 1570.67C1926.13 1574.02 1930.41 1575.16 1933.76 1573.23L2021.21 1522.74C2024.56 1520.81 2025.71 1516.53 2023.77 1513.18L1182.49 56.0292C1180.56 52.6812 1176.27 51.534 1172.93 53.467Z" fill="url(#paint13_linear_0_993)"/>
<path d="M265.181 1509.53L1063.36 127.051L1098.72 65.8008C1099.75 64.0291 1101.13 62.4926 1102.79 61.2908L1132.57 11.6308C1133.95 9.32835 1135.91 7.42968 1138.26 6.12528C1140.61 4.82089 1143.26 4.15664 1145.94 4.19919C1148.63 4.24174 1151.25 4.98959 1153.56 6.36771C1155.86 7.74582 1157.76 9.70573 1159.07 12.0508L1214.66 111.751L1200 113.231C1200.66 116.679 1200.06 120.25 1198.3 123.291L364.761 1567C362.798 1570.38 359.577 1572.84 355.803 1573.85C352.029 1574.86 348.009 1574.34 344.621 1572.39L270.621 1529.65C267.246 1527.69 264.781 1524.48 263.762 1520.71C262.744 1516.94 263.253 1512.92 265.181 1509.53Z" fill="url(#paint14_linear_0_993)"/>
<path d="M1527.71 2742.21C1526.49 2742.21 1525.27 2742.14 1524.06 2742.01C1515.71 2741.05 1508.09 2736.81 1502.87 2730.23C1497.65 2723.65 1495.25 2715.27 1496.21 2706.92L1695 976.68C1696.06 968.414 1700.33 960.896 1706.89 955.757C1713.45 950.617 1721.77 948.269 1730.05 949.221C1738.32 950.174 1745.89 954.35 1751.12 960.844C1756.34 967.339 1758.79 975.63 1757.94 983.92L1559.14 2714.16C1558.25 2721.88 1554.56 2728.99 1548.76 2734.17C1542.97 2739.34 1535.48 2742.2 1527.71 2742.21Z" fill="url(#paint15_linear_0_993)"/>
<path d="M2620.68 2742.22C2613.49 2742.21 2606.51 2739.76 2600.9 2735.26C2595.29 2730.76 2591.37 2724.49 2589.8 2717.47L2201.86 987.23C2200.14 979.078 2201.71 970.578 2206.21 963.57C2210.72 956.563 2217.8 951.611 2225.93 949.789C2234.06 947.966 2242.58 949.419 2249.64 953.833C2256.71 958.246 2261.75 965.265 2263.68 973.37L2651.62 2703.61C2652.66 2708.25 2652.64 2713.06 2651.57 2717.68C2650.49 2722.31 2648.39 2726.64 2645.42 2730.35C2642.45 2734.05 2638.69 2737.05 2634.4 2739.1C2630.12 2741.16 2625.43 2742.22 2620.68 2742.22Z" fill="url(#paint16_linear_0_993)"/>
<path d="M1965.53 2742.21C1961.37 2742.21 1957.25 2741.39 1953.41 2739.8C1949.57 2738.21 1946.08 2735.88 1943.14 2732.94C1940.19 2729.99 1937.86 2726.5 1936.27 2722.66C1934.68 2718.82 1933.86 2714.7 1933.86 2710.54V1856.64C1933.78 1852.43 1934.55 1848.25 1936.11 1844.35C1937.67 1840.44 1939.99 1836.88 1942.94 1833.88C1945.88 1830.88 1949.4 1828.49 1953.28 1826.86C1957.16 1825.24 1961.33 1824.4 1965.53 1824.4C1969.74 1824.4 1973.91 1825.24 1977.79 1826.86C1981.67 1828.49 1985.19 1830.88 1988.13 1833.88C1991.08 1836.88 1993.4 1840.44 1994.96 1844.35C1996.52 1848.25 1997.28 1852.43 1997.21 1856.64V2710.54C1997.21 2718.94 1993.87 2727 1987.93 2732.94C1981.99 2738.87 1973.93 2742.21 1965.53 2742.21Z" fill="url(#paint17_linear_0_993)"/>
<path d="M1386.2 726.26C1378.57 726.43 1371.06 728.156 1364.13 731.332C1357.2 734.508 1350.98 739.066 1345.87 744.728C1340.76 750.39 1336.87 757.036 1334.42 764.259C1331.97 771.481 1331.02 779.128 1331.63 786.73L1443 2189.42C1444.12 2203.71 1450.69 2217.03 1461.33 2226.63C1471.98 2236.22 1485.91 2241.37 1500.24 2241.01L2663.36 2212.64C2671.35 2212.46 2679.21 2210.56 2686.41 2207.09C2693.61 2203.61 2699.98 2198.64 2705.09 2192.49C2710.21 2186.35 2713.95 2179.18 2716.07 2171.47C2718.18 2163.77 2718.62 2155.69 2717.36 2147.8L2494.67 749.13C2492.54 735.733 2485.62 723.563 2475.2 714.878C2464.78 706.193 2451.56 701.582 2438 701.9L1386.2 726.26Z" fill="url(#paint18_linear_0_993)"/>
<path opacity="0.96" d="M1374.41 825.341C1373.8 817.737 1374.75 810.089 1377.2 802.865C1379.65 795.641 1383.55 788.994 1388.66 783.332C1393.77 777.67 1399.99 773.112 1406.92 769.937C1413.86 766.763 1421.37 765.039 1429 764.871L2404.37 742.291C2417.93 741.971 2431.14 746.582 2441.55 755.266C2451.97 763.95 2458.88 776.118 2461 789.511L2671.11 2109.32C2672.36 2117.21 2671.92 2125.28 2669.8 2132.99C2667.68 2140.69 2663.94 2147.86 2658.83 2154C2653.71 2160.14 2647.34 2165.11 2640.15 2168.59C2632.95 2172.07 2625.1 2173.97 2617.11 2174.16L1536.71 2200.51C1522.38 2200.87 1508.45 2195.72 1497.81 2186.13C1487.16 2176.53 1480.59 2163.21 1479.47 2148.92L1374.41 825.341Z" fill="white"/>
<path d="M2222.13 1890.72L1903.13 1900.32L1880.41 2069.81C1876.54 2098.63 1852.41 2120.13 1822.7 2121.22L1662.88 2127.06C1621.55 2128.57 1588.52 2091.5 1596.06 2051.96L1826.78 842.111C1831.99 814.811 1855.56 795.791 1884.07 795.871L2096.26 796.431C2124.36 796.501 2150.17 815.431 2159.06 842.531L2545.48 2019.41C2557.87 2057.15 2531.79 2095.29 2492.55 2096.72L2331.55 2102.61C2302.77 2103.61 2276.5 2084.41 2268.67 2056.49L2222.13 1890.72ZM2144.52 1609.41L2011.06 1138.34L1944.5 1613.74L2144.52 1609.41Z" fill="url(#paint19_linear_0_993)"/>
<path d="M1778.41 1675.64C1777.59 1674.84 1776.94 1673.88 1776.51 1672.82C1776.08 1671.76 1775.87 1670.62 1775.9 1669.47C1775.94 1668.33 1776.21 1667.2 1776.7 1666.16C1777.19 1665.13 1777.89 1664.2 1778.75 1663.45L2211.44 1277.38C2212.03 1276.85 2212.77 1276.5 2213.56 1276.39C2214.35 1276.28 2215.16 1276.41 2215.87 1276.76C2216.47 1277.04 2216.99 1277.46 2217.39 1277.99C2217.79 1278.52 2218.05 1279.14 2218.15 1279.79C2218.25 1280.45 2218.18 1281.11 2217.96 1281.74C2217.74 1282.36 2217.36 1282.92 2216.87 1283.36L1789.78 1675.8C1788.22 1677.23 1786.18 1678.01 1784.06 1677.98C1781.95 1677.95 1779.93 1677.11 1778.41 1675.64Z" fill="url(#paint20_linear_0_993)"/>
<path d="M1599.32 1694C1599.32 1694 1727.46 1740.4 1787.59 1718.42C1790.22 1717.48 1792.77 1716.35 1795.25 1715.06C1851.25 1685.46 1858.16 1605.39 1858.16 1605.39L1883.33 1610.39C1883.33 1610.39 1891.54 1739.16 1803.33 1794.49C1759.91 1821.71 1693.13 1831.16 1590.52 1798.72L1599.32 1694Z" fill="url(#paint21_linear_0_993)"/>
<path d="M1859.44 1612.39L1858.16 1605.39C1858.16 1605.39 1852.91 1588.34 1866.8 1571.56C1886.87 1547.3 1901.56 1556.22 1901.56 1556.22C1900.93 1559.45 1900.6 1562.72 1900.56 1566.01C1900.58 1566.84 1900.84 1567.65 1901.3 1568.33C1901.77 1569.02 1902.42 1569.56 1903.19 1569.88C1903.95 1570.21 1904.79 1570.31 1905.61 1570.17C1906.43 1570.02 1907.19 1569.65 1907.8 1569.09L1940.55 1538.99C1940.55 1538.99 1949.72 1586.79 1879.48 1619.65L1859.44 1612.39Z" fill="url(#paint22_linear_0_993)"/>
<path d="M1493.5 1527.42C1493.5 1527.42 1498.84 1538.1 1464.06 1554.8C1444.67 1564.1 1406.94 1577.86 1401.96 1618.05C1399.39 1638.8 1384.04 1655.42 1363.37 1658.59C1311.89 1666.48 1232.57 1693.21 1219.88 1782.59C1210.19 1850.8 1244.96 1876.67 1281.46 1885.59C1308.26 1892.16 1326.08 1918.24 1320.65 1945.3C1315.45 1971.3 1323.21 2001.3 1368.18 2024.99C1468.95 2078.16 1569.58 1898.99 1569.58 1898.99L1590.2 1586.2L1493.5 1527.42Z" fill="url(#paint23_linear_0_993)"/>
<path d="M1256.61 2744.58L1252.47 2778.58C1252.1 2781.71 1250.69 2784.63 1248.46 2786.86C1246.22 2789.09 1243.3 2790.5 1240.17 2790.86C1229.28 2792.1 1211.8 2793.38 1194.71 2791.57C1192.95 2791.37 1191.25 2790.78 1189.74 2789.85C1188.23 2788.92 1186.94 2787.66 1185.98 2786.17C1185.01 2784.68 1184.39 2782.99 1184.16 2781.23C1183.92 2779.47 1184.08 2777.68 1184.62 2775.99C1188.79 2762.87 1196.41 2743.19 1207.4 2731.61H1245.08C1246.72 2731.61 1248.34 2731.96 1249.84 2732.63C1251.33 2733.3 1252.67 2734.28 1253.76 2735.51C1254.85 2736.73 1255.66 2738.17 1256.16 2739.74C1256.65 2741.3 1256.8 2742.95 1256.61 2744.58Z" fill="url(#paint24_linear_0_993)"/>
<path d="M1551.73 2346.67L1558.09 2384.08C1558.09 2384.08 1536.79 2599.81 1533 2686.08C1532.41 2699.6 1535.9 2712.99 1543 2724.51L1580 2784.65L1485.88 2729.11L1484.01 2717.63L1499.42 2696.44L1479.24 2454.77C1478.05 2440.58 1480.98 2426.34 1487.68 2413.77L1507.14 2377.2L1551.73 2346.67Z" fill="url(#paint25_linear_0_993)"/>
<path d="M1586.24 2793.38H1556.24C1553.47 2793.39 1550.73 2792.76 1548.24 2791.55C1545.75 2790.34 1543.58 2788.57 1541.88 2786.38C1532.52 2774.21 1513.12 2750.47 1503.88 2749.85C1491.4 2749.02 1492.99 2793.41 1492.99 2793.41H1485.99L1477.13 2738.25C1476.04 2731.48 1477.11 2724.55 1480.18 2718.42C1483.26 2712.29 1488.18 2707.29 1494.26 2704.12C1494.26 2704.12 1497.12 2725.23 1512.6 2734.56C1528.08 2743.89 1575.6 2777.34 1575.6 2777.34C1579.66 2776.87 1583.77 2776.98 1587.81 2777.67C1597.2 2779.35 1595.87 2793.38 1586.24 2793.38Z" fill="url(#paint26_linear_0_993)"/>
<path d="M1422.82 2364.44C1422.82 2364.44 1298.05 2601.12 1278.21 2655.15C1258.37 2709.18 1251.43 2754.27 1251.21 2758.54C1250.79 2765.21 1242.5 2771.6 1219.63 2771.6C1207.82 2771.6 1202.04 2766.87 1199.21 2762.29C1198.04 2760.36 1197.38 2758.16 1197.29 2755.9C1197.21 2753.64 1197.69 2751.4 1198.71 2749.38C1205.93 2734.77 1228.83 2688.1 1237.31 2666.93C1247.44 2641.65 1269.23 2527.1 1281.17 2487.27C1293.11 2447.44 1306.63 2404.27 1358.66 2364.44C1358.62 2364.44 1394.33 2329.46 1422.82 2364.44Z" fill="url(#paint27_linear_0_993)"/>
<path d="M1501.64 1976.64C1533.82 1840.26 1452.29 1763.12 1452.29 1763.12C1493.63 1723.44 1562.29 1701.12 1587.64 1693.91C1590.7 1693.03 1593.93 1692.91 1597.05 1693.55C1600.17 1694.18 1603.09 1695.56 1605.56 1697.57C1627.33 1715.15 1684.93 1766.2 1676.3 1807.84C1670.08 1837.84 1613.43 1987.53 1613.43 1987.53C1613.43 1987.53 1561.05 2012.32 1501.64 1976.64Z" fill="url(#paint28_linear_0_993)"/>
<path d="M1430.28 2044.16C1443.38 2004.7 1501.64 1976.64 1501.64 1976.64C1561.05 2012.32 1613.43 1987.53 1613.43 1987.53C1613.43 1987.53 1625.18 2032.43 1617.07 2074.16C1608.96 2115.89 1558.07 2384.08 1558.07 2384.08C1477.91 2400.33 1354.63 2367.74 1354.63 2367.74C1405.71 2277.1 1417.18 2083.61 1430.28 2044.16Z" fill="url(#paint29_linear_0_993)"/>
<path d="M1539 1601.15L1512.84 1718.68C1510.33 1729.04 1519.77 1727.34 1530.24 1725.37C1547.38 1722.14 1569.47 1715.48 1576.86 1702.14C1577.57 1700.76 1578.03 1699.26 1578.2 1697.71L1589.44 1616.21C1589.87 1613.06 1589.27 1609.86 1587.72 1607.09C1586.18 1604.31 1583.77 1602.11 1580.87 1600.82L1559.17 1591.2C1557.21 1590.33 1555.08 1589.9 1552.94 1589.95C1550.79 1589.99 1548.68 1590.51 1546.76 1591.46C1544.84 1592.41 1543.14 1593.77 1541.8 1595.44C1540.46 1597.12 1539.51 1599.06 1539 1601.15Z" fill="url(#paint30_linear_0_993)"/>
<path d="M1589.11 1494C1589.11 1494 1616.97 1512.86 1628.94 1560.88C1640.91 1608.9 1621.46 1626.13 1601.52 1625.07C1581.58 1624.01 1552.67 1617.85 1527.62 1583.4C1502.57 1548.95 1552.61 1471 1589.11 1494Z" fill="url(#paint31_linear_0_993)"/>
<path d="M1552.88 1564C1552.88 1564 1542.67 1495.19 1599.8 1505.71L1611.35 1517.71C1611.35 1517.71 1639.35 1486.22 1608.35 1462.41C1577.35 1438.6 1534.46 1444.7 1510.7 1488.04C1486.94 1531.38 1478.32 1561.83 1498.23 1588.76C1518.14 1615.69 1533.13 1592.6 1533.13 1592.6C1533.13 1592.6 1524 1569.29 1531.57 1559.29C1539.14 1549.29 1548.93 1565.1 1548.93 1565.1L1552.88 1564Z" fill="url(#paint32_linear_0_993)"/>
<path d="M1545.07 1569.92C1545.07 1569.92 1540.07 1534.52 1521.95 1544.64C1503.83 1554.76 1528.47 1577.71 1538.33 1585.52L1545.07 1569.92Z" fill="url(#paint33_linear_0_993)"/>
<path d="M1451.91 1765.13C1451.91 1765.13 1396.37 1853.99 1385.26 1920.65C1374.15 1987.31 1479.69 2015.07 1518.56 1976.19L1513.01 1948.42C1513.01 1948.42 1451.91 1959.52 1446.36 1926.2C1440.81 1892.88 1496.36 1826.2 1496.36 1826.2C1496.36 1826.2 1479.69 1776.24 1451.91 1765.13Z" fill="url(#paint34_linear_0_993)"/>
<path d="M1498.32 2033.25L1561.46 1812.75C1561.81 1811.53 1562.51 1810.44 1563.48 1809.61C1564.45 1808.79 1565.64 1808.27 1566.9 1808.12C1578.34 1806.79 1611.48 1803.04 1649.76 1799.8C1695.86 1795.91 1749.39 1792.8 1781.38 1795.43C1782.43 1795.51 1783.44 1795.85 1784.33 1796.42C1785.22 1796.99 1785.96 1797.76 1786.48 1798.68C1787 1799.59 1787.29 1800.62 1787.32 1801.68C1787.35 1802.73 1787.13 1803.77 1786.66 1804.72C1768.46 1841.52 1693.66 1991.24 1656.16 2040.28C1655.55 2041.08 1654.76 2041.73 1653.86 2042.18C1652.95 2042.62 1651.96 2042.85 1650.95 2042.84L1504.46 2041.47C1503.47 2041.46 1502.49 2041.22 1501.6 2040.78C1500.72 2040.33 1499.94 2039.68 1499.35 2038.88C1498.76 2038.09 1498.35 2037.16 1498.17 2036.19C1498 2035.21 1498.05 2034.2 1498.32 2033.25Z" fill="url(#paint35_linear_0_993)"/>
<path d="M1656.3 1780.69L1702.08 1773.06C1702.64 1772.97 1703.21 1773.02 1703.74 1773.22C1704.27 1773.41 1704.74 1773.74 1705.11 1774.17C1705.48 1774.6 1705.73 1775.11 1705.84 1775.67C1705.95 1776.22 1705.92 1776.79 1705.74 1777.33L1701.21 1791.06C1701.02 1791.65 1700.66 1792.16 1700.19 1792.56C1699.71 1792.95 1699.14 1793.21 1698.53 1793.29L1654.47 1799.17C1653.94 1799.24 1653.41 1799.18 1652.91 1799C1652.41 1798.82 1651.96 1798.52 1651.6 1798.12C1651.25 1797.73 1650.99 1797.26 1650.86 1796.74C1650.72 1796.23 1650.72 1795.69 1650.84 1795.17L1653.65 1783.17C1653.8 1782.54 1654.13 1781.97 1654.6 1781.53C1655.07 1781.09 1655.66 1780.8 1656.3 1780.69Z" fill="url(#paint36_linear_0_993)"/>
<path d="M1622 1819.44L1625.77 1799.8C1625.95 1798.84 1626.44 1797.97 1627.16 1797.31C1627.88 1796.65 1628.8 1796.24 1629.77 1796.14L1722.23 1786.76C1722.95 1786.69 1723.68 1786.79 1724.35 1787.05C1725.03 1787.32 1725.63 1787.74 1726.11 1788.28C1726.58 1788.83 1726.92 1789.48 1727.09 1790.19C1727.27 1790.89 1727.27 1791.63 1727.1 1792.33L1721.22 1816.81C1720.99 1817.76 1720.46 1818.62 1719.71 1819.24C1718.95 1819.87 1718.02 1820.23 1717.04 1820.28L1626.69 1824.83C1626 1824.87 1625.31 1824.74 1624.68 1824.47C1624.05 1824.21 1623.48 1823.8 1623.03 1823.28C1622.58 1822.76 1622.25 1822.14 1622.07 1821.48C1621.89 1820.81 1621.87 1820.12 1622 1819.44Z" fill="url(#paint37_linear_0_993)"/>
<path d="M1513.57 1980C1513.57 1980 1504.78 1943.83 1508.33 1931C1511.88 1918.17 1518.75 1901.67 1541.66 1905.34C1564.57 1909.01 1591.6 1918.66 1591.6 1918.66C1591.6 1918.66 1590.24 1935.37 1572.82 1929.98L1583.62 1938.33C1583.62 1938.33 1582.08 1951.71 1567.37 1944.56L1577.37 1955.65C1577.37 1955.65 1571.05 1966.65 1560.23 1959.59C1549.41 1952.53 1544.26 1984.33 1513.57 1980Z" fill="url(#paint38_linear_0_993)"/>
<path d="M1294 1845.6C1292.28 1845.49 1290.63 1844.91 1289.23 1843.92C1265.68 1828.58 1253.12 1796.92 1258.69 1766.92C1262.03 1748.92 1270.94 1733.45 1283.78 1723.28C1292.89 1716.06 1303.71 1711.65 1314.01 1707.76C1331.39 1701.19 1349.28 1695.41 1367.19 1690.56L1371.63 1689.38C1382.1 1686.59 1392.94 1683.71 1402.74 1678.81C1415.3 1672.51 1424.46 1663.37 1428.52 1653.05C1431.05 1646.64 1431.77 1639.53 1432.52 1632.65C1433.38 1624.22 1434.27 1615.51 1438.52 1608.05C1438.54 1608 1438.58 1607.95 1438.63 1607.92C1438.67 1607.88 1438.72 1607.85 1438.78 1607.84C1438.83 1607.82 1438.89 1607.82 1438.95 1607.82C1439 1607.83 1439.06 1607.85 1439.11 1607.88C1439.16 1607.91 1439.2 1607.95 1439.24 1607.99C1439.28 1608.04 1439.3 1608.09 1439.32 1608.14C1439.33 1608.2 1439.34 1608.26 1439.33 1608.32C1439.32 1608.37 1439.31 1608.43 1439.28 1608.48C1435.15 1615.78 1434.28 1624.41 1433.41 1632.74C1432.7 1639.68 1431.97 1646.85 1429.41 1653.37C1425.26 1663.89 1415.96 1673.2 1403.2 1679.59C1393.32 1684.53 1382.44 1687.43 1371.93 1690.23C1370.45 1690.62 1368.93 1691.01 1367.49 1691.42C1349.61 1696.25 1331.74 1702.02 1314.39 1708.58C1304.15 1712.45 1293.39 1716.82 1284.39 1723.96C1271.72 1733.96 1262.92 1749.32 1259.62 1767.07C1254.12 1796.73 1266.52 1828.07 1289.78 1843.18C1291.51 1844.3 1294.78 1845.68 1296.22 1843.7C1296.29 1843.6 1296.39 1843.54 1296.51 1843.52C1296.62 1843.5 1296.74 1843.53 1296.84 1843.6C1296.93 1843.67 1297 1843.77 1297.02 1843.89C1297.04 1844.01 1297.01 1844.12 1296.94 1844.22C1296.61 1844.68 1296.16 1845.05 1295.65 1845.29C1295.13 1845.53 1294.57 1845.64 1294 1845.6Z" fill="white"/>
<path d="M1287.93 1817.35C1287.86 1817.35 1287.79 1817.33 1287.72 1817.3C1287.66 1817.26 1287.61 1817.21 1287.57 1817.15C1278.48 1803.58 1273.75 1789.32 1273.89 1775.93C1274.05 1760.25 1281.33 1745.66 1292.89 1737.87C1292.94 1737.84 1292.99 1737.81 1293.05 1737.8C1293.1 1737.79 1293.16 1737.79 1293.22 1737.8C1293.27 1737.81 1293.33 1737.83 1293.38 1737.86C1293.43 1737.89 1293.47 1737.93 1293.5 1737.98C1293.56 1738.08 1293.58 1738.2 1293.56 1738.31C1293.54 1738.42 1293.47 1738.52 1293.38 1738.59C1282.05 1746.23 1274.92 1760.59 1274.76 1775.94C1274.62 1789.15 1279.3 1803.24 1288.29 1816.67C1288.32 1816.72 1288.34 1816.77 1288.35 1816.83C1288.37 1816.88 1288.37 1816.94 1288.35 1817C1288.34 1817.05 1288.32 1817.1 1288.29 1817.15C1288.26 1817.2 1288.22 1817.24 1288.17 1817.27C1288.1 1817.32 1288.02 1817.35 1287.93 1817.35Z" fill="white"/>
<path d="M2304.83 1979.79C2304.83 1979.79 2367.9 2149.74 2463.83 2128.88C2463.83 2128.88 2473.72 2186.71 2457.58 2193.53C2457.58 2193.53 2313.68 2197.7 2299.38 2000.08L2304.83 1979.79Z" fill="url(#paint39_linear_0_993)"/>
<path d="M2307.53 2019.61C2307.26 2022.61 2318.21 2024.61 2321.7 2012.04C2320.7 2006.58 2319.04 1982.71 2314.86 1979.04C2292.6 1959.28 2252.86 1937.04 2252.86 1937.04C2248.42 1943.82 2254.25 1948.28 2254.25 1948.28L2274.06 1961.66C2272 1968.51 2268.98 1974.56 2268.64 1982.38C2268.44 1988.33 2270.54 1994.13 2274.5 1998.58C2278.44 2003.09 2283.75 2008.91 2288.5 2013.33C2297.63 2021.67 2307.53 2019.61 2307.53 2019.61Z" fill="url(#paint40_linear_0_993)"/>
<path d="M2296.82 2009.85C2294.14 2003.32 2286.43 1985.59 2282.96 1981.96C2280.53 1979.43 2279.42 1977.11 2279.56 1974.89C2279.66 1973.88 2279.99 1972.9 2280.5 1972.03C2281.02 1971.16 2281.72 1970.41 2282.56 1969.83L2283.38 1969.16L2302.11 1979.16L2309.65 1990.96L2306.99 1992.66L2299.9 1981.56L2283.8 1972.95C2283.21 1973.51 2282.83 1974.26 2282.74 1975.07C2282.66 1976.34 2283.51 1977.92 2285.27 1979.76C2289.86 1984.56 2299.37 2007.65 2299.77 2008.64L2296.82 2009.85Z" fill="url(#paint41_linear_0_993)"/>
<path fill-rule="evenodd" clip-rule="evenodd" d="M2462.91 1908.77C2462.91 1908.77 2493.37 1881.26 2454.21 1851.43C2417.41 1823.43 2390.52 1861.01 2402.72 1885.21C2402.91 1885.61 2403.01 1886.05 2403.01 1886.5C2403.01 1886.95 2402.92 1887.39 2402.72 1887.79C2402.53 1888.2 2402.25 1888.55 2401.91 1888.83C2401.56 1889.11 2401.15 1889.31 2400.72 1889.42C2397.5 1890.12 2394.72 1893.32 2399.79 1904.62C2400 1905.11 2400.08 1905.64 2400.03 1906.17C2399.97 1906.69 2399.77 1907.19 2399.45 1907.62C2394.94 1913.67 2379.89 1937.91 2425.27 1941.62C2425.68 1941.65 2426.08 1941.6 2426.47 1941.47C2426.85 1941.34 2427.21 1941.13 2427.51 1940.86L2462.91 1908.77Z" fill="url(#paint42_linear_0_993)"/>
<path fill-rule="evenodd" clip-rule="evenodd" d="M2622.91 1949.14C2622.91 1949.14 2625.83 1914.04 2644.62 1902.59C2663.41 1891.14 2699.88 1881.42 2715.16 1919.59C2722.45 1937.79 2720.03 1946.46 2715.52 1950.59C2711.4 1954.31 2710.93 1960.09 2713.66 1964.95C2716.75 1970.48 2717.16 1977.31 2707.83 1983.52C2706.5 1984.37 2705.36 1985.48 2704.47 1986.78C2703.58 1988.09 2702.96 1989.55 2702.65 1991.1C2700.21 2003.82 2687.19 2034.36 2617.58 2000.97L2622.91 1949.14Z" fill="url(#paint43_linear_0_993)"/>
<path fill-rule="evenodd" clip-rule="evenodd" d="M2542.43 1886C2556.13 1880.13 2585.15 1874.15 2607.72 1913.62C2609.28 1916.38 2611.58 1918.65 2614.35 1920.19C2627.8 1927.6 2666.72 1954.55 2631.28 2003.19C2629.65 2005.41 2628.58 2007.99 2628.19 2010.72C2627.01 2018.96 2623.09 2037.21 2611.3 2041.72C2607.79 2043.06 2604.82 2045.52 2602.86 2048.72C2594.94 2061.77 2572.35 2089.2 2534.34 2060.55C2532.4 2059.1 2530.18 2058.07 2527.81 2057.55L2475.32 2046C2472.53 2045.39 2469.63 2045.49 2466.89 2046.3C2460.47 2048.18 2447.51 2049.82 2442.68 2034.73C2441.7 2031.65 2439.88 2028.91 2437.42 2026.82C2428.62 2019.34 2409.93 1999.06 2424.07 1970.62C2425.66 1967.44 2426.22 1963.85 2425.68 1960.34C2424.03 1949.69 2423.16 1926.04 2445.26 1915.83C2448.59 1914.34 2451.33 1911.78 2453.04 1908.55C2460.41 1894.36 2484.44 1858.01 2526.77 1884.67C2529.08 1886.14 2531.71 1887.04 2534.44 1887.27C2537.16 1887.5 2539.91 1887.06 2542.43 1886Z" fill="url(#paint44_linear_0_993)"/>
<path fill-rule="evenodd" clip-rule="evenodd" d="M2471.14 2720.11L2478.78 2728.94L2473.54 2748.11C2472.86 2750.57 2471.51 2752.79 2469.63 2754.51C2467.75 2756.23 2465.42 2757.39 2462.91 2757.85C2445.85 2760.98 2407.17 2766.63 2387.27 2758.06C2387.27 2758.06 2381.08 2716.58 2449.64 2728.94L2471.14 2720.11Z" fill="url(#paint45_linear_0_993)"/>
<path fill-rule="evenodd" clip-rule="evenodd" d="M2590.73 2742.14L2594.8 2752.14L2593.15 2788.14C2592.92 2793.14 2588.84 2797.43 2583.35 2798.28C2575.85 2799.43 2564.95 2800.6 2554.68 2799.81C2546.68 2799.19 2541.62 2791.64 2544.76 2784.91L2556.86 2758.98C2557.76 2757.06 2559.03 2755.34 2560.6 2753.92C2562.18 2752.51 2564.02 2751.42 2566.03 2750.73L2590.73 2742.14Z" fill="url(#paint46_linear_0_993)"/>
<path fill-rule="evenodd" clip-rule="evenodd" d="M2555.92 2041.41L2563.73 2118.75C2563.73 2118.75 2521.73 2133.01 2494 2116.91L2501.48 2039.27L2555.92 2041.41Z" fill="url(#paint47_linear_0_993)"/>
<path fill-rule="evenodd" clip-rule="evenodd" d="M2623.35 2464.81C2623.35 2464.81 2603.35 2687.28 2590.22 2755.35C2590.22 2755.35 2580.36 2762.53 2565.6 2753.27L2547.7 2456.39L2623.35 2464.81Z" fill="url(#paint48_linear_0_993)"/>
<path fill-rule="evenodd" clip-rule="evenodd" d="M2534.67 2478.17L2480 2727.3C2480 2727.3 2465.12 2742.72 2445.8 2727.3L2455.22 2465.4L2534.67 2478.17Z" fill="url(#paint49_linear_0_993)"/>
<path fill-rule="evenodd" clip-rule="evenodd" d="M2603.83 2124.57L2617.51 2126.1C2643.99 2154.49 2692.51 2349.61 2710.08 2391.1L2781.38 2379.45C2782.01 2379.32 2782.67 2379.37 2783.28 2379.58C2783.89 2379.8 2784.43 2380.18 2784.84 2380.67C2785.25 2381.17 2785.52 2381.77 2785.61 2382.41C2785.71 2383.05 2785.63 2383.7 2785.38 2384.3C2782.22 2392.03 2770.38 2414.3 2724.07 2414.3C2702.45 2414.3 2736.2 2431.07 2723.27 2436.83C2723.27 2436.83 2694.85 2426.6 2694.81 2408.61C2694.81 2408.61 2613.36 2223.09 2596.61 2203.61C2579.86 2184.13 2603.83 2124.57 2603.83 2124.57Z" fill="url(#paint50_linear_0_993)"/>
<path fill-rule="evenodd" clip-rule="evenodd" d="M2617.51 2126.1C2617.51 2126.1 2545.05 2099.26 2454.61 2127.04C2454.61 2127.04 2444.47 2195.52 2449.69 2228.11L2605.54 2233.75L2617.51 2126.1Z" fill="url(#paint51_linear_0_993)"/>
<path fill-rule="evenodd" clip-rule="evenodd" d="M2451.82 2249.51C2451.82 2249.51 2402.01 2409.41 2394.62 2515.95C2394.53 2517.25 2394.69 2518.56 2395.11 2519.8C2395.52 2521.04 2396.18 2522.18 2397.03 2523.16C2397.89 2524.15 2398.93 2524.95 2400.1 2525.54C2401.27 2526.12 2402.54 2526.46 2403.84 2526.55C2414.2 2527.29 2432.48 2529.84 2457.32 2538.11C2497.59 2551.52 2530.93 2547.11 2561.04 2538.46C2584.67 2531.67 2643.77 2525.74 2668.09 2523.46C2669.46 2523.34 2670.79 2522.93 2671.99 2522.26C2673.2 2521.6 2674.25 2520.69 2675.08 2519.6C2675.92 2518.5 2676.51 2517.25 2676.83 2515.91C2677.16 2514.57 2677.2 2513.18 2676.95 2511.83C2669.87 2472.41 2643.01 2332.5 2602.24 2237.4L2451.82 2249.51Z" fill="url(#paint52_linear_0_993)"/>
<path fill-rule="evenodd" clip-rule="evenodd" d="M2449.18 2224.42L2451.82 2249.51C2451.82 2249.51 2499.74 2249.7 2605.63 2246.13L2606.18 2227.98C2606.18 2227.98 2488.87 2230.28 2449.18 2224.42Z" fill="#7D97F4"/>
<path fill-rule="evenodd" clip-rule="evenodd" d="M2449.52 1966.44C2437.52 2012.94 2441 2066.38 2495.71 2078.37C2533.56 2086.66 2573.33 2048.09 2585.37 2001.59C2597.41 1955.09 2576.8 1919.68 2539.29 1909.97C2501.78 1900.26 2461.56 1919.94 2449.52 1966.44Z" fill="url(#paint53_linear_0_993)"/>
<path fill-rule="evenodd" clip-rule="evenodd" d="M2453.64 1980.78C2453.64 1980.78 2451.84 1952.67 2437.82 1961.34C2423.8 1970.01 2443.24 2003.71 2451.91 2005.68C2460.58 2007.65 2453.64 1980.78 2453.64 1980.78Z" fill="url(#paint54_linear_0_993)"/>
<path fill-rule="evenodd" clip-rule="evenodd" d="M2573.6 2013.21C2573.6 2013.21 2577.8 1991.76 2592.99 2001.68C2608.18 2011.6 2579.2 2046.68 2561.33 2038.84L2573.6 2013.21Z" fill="url(#paint55_linear_0_993)"/>
<path fill-rule="evenodd" clip-rule="evenodd" d="M2596.09 1996.16C2596.09 1996.16 2552.59 2043.26 2529.99 1945.53C2529.99 1945.53 2507.44 1974.72 2497.14 1948.9C2497.14 1948.9 2452.24 1964.29 2447.28 1945.4C2442.32 1926.51 2507.98 1875.3 2560.79 1912.05C2613.6 1948.8 2596.09 1996.16 2596.09 1996.16Z" fill="url(#paint56_linear_0_993)"/>
<path d="M2192.63 592.711L2156.85 686.571C2156.85 686.571 2191 836.941 2357.83 885.001C2524.66 933.061 2591.67 851.121 2591.67 851.121L2634 713.481L2192.63 592.711Z" fill="url(#paint57_linear_0_993)"/>
<path d="M2449.71 448.499L2113.89 535.769C2109.97 536.785 2106.4 538.845 2103.57 541.732C2100.73 544.618 2098.73 548.221 2097.78 552.155C2096.83 556.09 2096.97 560.208 2098.18 564.07C2099.4 567.932 2101.63 571.391 2104.66 574.079C2169.81 631.969 2317.81 766.719 2373.36 844.409C2376.25 848.445 2380.41 851.4 2385.17 852.806C2389.93 854.211 2395.03 853.987 2399.65 852.169L2740.3 718.639C2743.83 717.254 2746.96 714.991 2749.37 712.064C2751.79 709.137 2753.42 705.642 2754.12 701.909C2754.81 698.176 2754.54 694.328 2753.33 690.729C2752.12 687.131 2750.01 683.899 2747.21 681.339C2682.72 622.529 2518.56 475.229 2464.77 449.869C2460.07 447.662 2454.73 447.177 2449.71 448.499Z" fill="url(#paint58_linear_0_993)"/>
<path d="M2439.22 620.93C2439.22 620.93 2615.22 736.63 2628.28 762.55C2641.34 788.47 2611.84 904.62 2611.84 904.62C2638.02 1003.9 2640.14 1111.2 2591.73 1166.4C2591.73 1166.4 2535.79 1035.4 2562.91 981.21C2590.03 927.02 2600.5 904.73 2600.5 904.73C2600.5 904.73 2625.67 780.79 2618.79 762.87C2618.79 762.87 2424 627.76 2439.22 620.93Z" fill="url(#paint59_linear_0_993)"/>
<path d="M2160.53 565.36L2327.73 737.8L2358.91 770L2374.2 785.77L2381.71 793.51L2385.33 797.22C2386.43 798.323 2387.62 799.327 2388.9 800.22C2392.55 802.86 2396.76 804.638 2401.2 805.421C2405.63 806.204 2410.19 805.971 2414.53 804.74L2423.8 801.89L2458.53 791.12L2530.21 768.87C2531.02 768.648 2531.89 768.747 2532.63 769.148C2533.37 769.55 2533.93 770.221 2534.19 771.023C2534.44 771.825 2534.38 772.695 2534.01 773.453C2533.65 774.21 2533 774.797 2532.21 775.09L2460.85 798.38L2426.28 809.65L2416.86 812.65C2411.31 814.311 2405.46 814.691 2399.74 813.763C2394.03 812.834 2388.6 810.621 2383.86 807.29C2382.24 806.162 2380.72 804.908 2379.3 803.54C2377.79 802.11 2376.72 800.98 2375.4 799.67L2367.77 792.03L2352.26 776.49L2320.62 744.78L2150.95 574.78C2149.77 573.499 2149.12 571.81 2149.16 570.067C2149.2 568.324 2149.91 566.662 2151.14 565.431C2152.38 564.201 2154.04 563.496 2155.78 563.466C2157.53 563.436 2159.21 564.082 2160.49 565.27L2160.53 565.36Z" fill="#BDD0FB"/>
<path d="M2600.05 966.531C2600.05 966.531 2599.47 967.081 2598.94 967.711C2598.5 968.184 2598.08 968.685 2597.7 969.211C2597.08 969.941 2596.51 970.706 2595.98 971.501C2594.45 973.681 2593.03 975.945 2591.75 978.281C2590.97 979.631 2590.3 981.181 2589.49 982.761C2588.64 984.429 2587.89 986.146 2587.24 987.901C2585.63 991.839 2584.24 995.862 2583.07 999.951C2582.36 1002.11 2581.97 1004.45 2581.38 1006.78C2580.79 1009.11 2580.19 1011.49 2579.89 1013.99C2578.98 1019.09 2578.34 1024.24 2577.96 1029.41C2577.76 1032.08 2577.55 1034.74 2577.34 1037.41L2577.28 1045.54C2577.28 1048.25 2577.15 1050.97 2577.28 1053.67C2577.41 1056.37 2577.61 1059.08 2577.77 1061.76C2577.93 1064.44 2578.1 1067.09 2578.26 1069.76C2578.59 1072.38 2578.92 1074.96 2579.26 1077.51C2579.99 1082.58 2580.32 1087.51 2581.34 1092.16C2582.21 1096.8 2583.04 1101.16 2583.8 1105.23C2584.56 1109.3 2585.51 1112.94 2586.29 1116.23C2587.07 1119.52 2587.81 1122.32 2588.39 1124.66C2589.56 1129.34 2590.22 1132.01 2590.22 1132.01V1132.13C2590.39 1132.73 2590.31 1133.37 2590 1133.91C2589.7 1134.45 2589.19 1134.85 2588.59 1135.01C2587.99 1135.18 2587.35 1135.1 2586.81 1134.79C2586.27 1134.49 2585.88 1133.98 2585.71 1133.38L2583.49 1126.05C2582.79 1123.71 2581.93 1120.88 2580.95 1117.63C2579.97 1114.38 2578.76 1110.73 2577.87 1106.63C2576.98 1102.53 2575.87 1098.14 2574.71 1093.47C2573.55 1088.8 2572.84 1083.77 2571.85 1078.61C2571.39 1076.02 2570.92 1073.39 2570.46 1070.72C2570.15 1068.03 2569.84 1065.3 2569.54 1062.55C2569.24 1059.8 2568.93 1057.02 2568.62 1054.23C2568.31 1051.44 2568.33 1048.61 2568.18 1045.79C2568.03 1042.97 2567.94 1040.14 2567.83 1037.32C2567.9 1034.49 2567.98 1031.68 2568.05 1028.89C2568.18 1023.4 2568.6 1017.91 2569.3 1012.46C2569.49 1009.79 2570.08 1007.2 2570.51 1004.64C2570.94 1002.08 2571.32 999.571 2571.97 997.171C2573.04 992.603 2574.35 988.096 2575.91 983.671C2577.21 979.874 2578.74 976.158 2580.48 972.541C2581.86 969.7 2583.4 966.94 2585.09 964.271C2585.7 963.238 2586.37 962.236 2587.09 961.271C2587.69 960.411 2588.22 959.681 2588.8 959.001C2589.92 957.631 2590.33 957.211 2590.33 957.211L2590.5 957.041C2591.12 956.411 2591.86 955.909 2592.67 955.564C2593.49 955.218 2594.36 955.037 2595.24 955.03C2596.13 955.022 2597 955.189 2597.82 955.52C2598.64 955.852 2599.39 956.341 2600.02 956.961C2600.65 957.581 2601.15 958.319 2601.5 959.133C2601.84 959.947 2602.02 960.821 2602.03 961.705C2602.04 962.589 2601.87 963.465 2601.54 964.285C2601.21 965.105 2600.72 965.851 2600.1 966.481L2600.05 966.531Z" fill="#BDD0FB"/>
<path d="M2605.5 1010.48C2605.5 1010.48 2605.5 1010.97 2605.38 1011.89C2605.26 1012.81 2605.38 1013.72 2605.28 1015.12C2605.2 1018.5 2605.09 1023.33 2604.96 1029.12C2604.79 1040.9 2604.57 1056.6 2604.34 1072.31C2604.02 1103.75 2603.69 1135.19 2603.69 1135.19C2603.69 1135.67 2603.59 1136.15 2603.4 1136.59C2603.22 1137.03 2602.94 1137.43 2602.6 1137.77C2602.26 1138.11 2601.86 1138.37 2601.41 1138.55C2600.97 1138.73 2600.49 1138.82 2600.01 1138.82C2599.07 1138.81 2598.17 1138.44 2597.49 1137.79C2596.81 1137.13 2596.41 1136.24 2596.37 1135.3L2593.95 1072.44C2593.41 1056.72 2592.86 1040.99 2592.45 1029.19C2592.3 1023.19 2592.18 1018.19 2592.09 1014.71C2592.09 1012.71 2592.09 1011.06 2592.09 1009.96C2592.09 1009.04 2592.14 1008.55 2592.14 1008.55C2592.2 1006.77 2592.96 1005.08 2594.26 1003.86C2595.57 1002.64 2597.3 1001.99 2599.08 1002.05C2600.86 1002.11 2602.55 1002.87 2603.77 1004.17C2604.99 1005.48 2605.64 1007.21 2605.58 1008.99C2605.59 1009.09 2605.59 1009.2 2605.58 1009.3L2605.5 1010.48Z" fill="#BDD0FB"/>
</g>
<defs>
<linearGradient id="paint0_linear_0_993" x1="3153.96" y1="3622.46" x2="663.501" y2="529.47" gradientUnits="userSpaceOnUse">
<stop stop-color="#DAE3FE"/>
<stop offset="1" stop-color="#E9EFFD"/>
</linearGradient>
<linearGradient id="paint1_linear_0_993" x1="704.95" y1="1919.38" x2="933.85" y2="1458.21" gradientUnits="userSpaceOnUse">
<stop stop-color="#FEBBBA"/>
<stop offset="1" stop-color="#FF928E"/>
</linearGradient>
<linearGradient id="paint2_linear_0_993" x1="1279.46" y1="1941.67" x2="-122.76" y2="2173.29" gradientUnits="userSpaceOnUse">
<stop stop-color="#FF928E"/>
<stop offset="1" stop-color="#FE7062"/>
</linearGradient>
<linearGradient id="paint3_linear_0_993" x1="2.36828e+06" y1="611594" x2="184241" y2="1.00424e+06" gradientUnits="userSpaceOnUse">
<stop stop-color="#FF928E"/>
<stop offset="1" stop-color="#FE7062"/>
</linearGradient>
<linearGradient id="paint4_linear_0_993" x1="169.48" y1="2580.65" x2="266.81" y2="2580.65" gradientUnits="userSpaceOnUse">
<stop stop-color="#E1473D"/>
<stop offset="1" stop-color="#E9605A"/>
</linearGradient>
<linearGradient id="paint5_linear_0_993" x1="21757.8" y1="476606" x2="26652.2" y2="476606" gradientUnits="userSpaceOnUse">
<stop stop-color="#E1473D"/>
<stop offset="1" stop-color="#E9605A"/>
</linearGradient>
<linearGradient id="paint6_linear_0_993" x1="1325.14" y1="2315.14" x2="-0.000115881" y2="2315.14" gradientUnits="userSpaceOnUse">
<stop stop-color="#4F52FF"/>
<stop offset="1" stop-color="#4042E2"/>
</linearGradient>
<linearGradient id="paint7_linear_0_993" x1="744.62" y1="412.89" x2="1255" y2="870.02" gradientUnits="userSpaceOnUse">
<stop stop-color="#FE7062"/>
<stop offset="1" stop-color="#FF928E"/>
</linearGradient>
<linearGradient id="paint8_linear_0_993" x1="371787" y1="1.59466e+06" x2="524417" y2="1.59466e+06" gradientUnits="userSpaceOnUse">
<stop stop-color="#4F52FF"/>
<stop offset="1" stop-color="#4042E2"/>
</linearGradient>
<linearGradient id="paint9_linear_0_993" x1="1.36727e+06" y1="301707" x2="1.16355e+06" y2="691004" gradientUnits="userSpaceOnUse">
<stop stop-color="#4F52FF"/>
<stop offset="1" stop-color="#4042E2"/>
</linearGradient>
<linearGradient id="paint10_linear_0_993" x1="1.36501e+06" y1="166921" x2="1.16129e+06" y2="556217" gradientUnits="userSpaceOnUse">
<stop stop-color="#4F52FF"/>
<stop offset="1" stop-color="#4042E2"/>
</linearGradient>
<linearGradient id="paint11_linear_0_993" x1="1.49185e+06" y1="300320" x2="1.28813e+06" y2="689616" gradientUnits="userSpaceOnUse">
<stop stop-color="#4F52FF"/>
<stop offset="1" stop-color="#4042E2"/>
</linearGradient>
<linearGradient id="paint12_linear_0_993" x1="1.48959e+06" y1="165534" x2="1.28587e+06" y2="554830" gradientUnits="userSpaceOnUse">
<stop stop-color="#4F52FF"/>
<stop offset="1" stop-color="#4042E2"/>
</linearGradient>
<linearGradient id="paint13_linear_0_993" x1="-4.718e+06" y1="-1.0342e+07" x2="-4.97483e+06" y2="-9.90591e+06" gradientUnits="userSpaceOnUse">
<stop stop-color="#4F52FF"/>
<stop offset="1" stop-color="#4042E2"/>
</linearGradient>
<linearGradient id="paint14_linear_0_993" x1="3.64336e+06" y1="-6.29392e+06" x2="3.81388e+06" y2="-5.40527e+06" gradientUnits="userSpaceOnUse">
<stop stop-color="#4F52FF"/>
<stop offset="1" stop-color="#4042E2"/>
</linearGradient>
<linearGradient id="paint15_linear_0_993" x1="393601" y1="3.31015e+06" x2="462319" y2="3.31015e+06" gradientUnits="userSpaceOnUse">
<stop stop-color="#FF928E"/>
<stop offset="1" stop-color="#FE7062"/>
</linearGradient>
<linearGradient id="paint16_linear_0_993" x1="995339" y1="3.31015e+06" x2="1.19897e+06" y2="3.31015e+06" gradientUnits="userSpaceOnUse">
<stop stop-color="#FF928E"/>
<stop offset="1" stop-color="#FE7062"/>
</linearGradient>
<linearGradient id="paint17_linear_0_993" x1="124463" y1="2.09773e+06" x2="128477" y2="2.09773e+06" gradientUnits="userSpaceOnUse">
<stop stop-color="#FF928E"/>
<stop offset="1" stop-color="#FE7062"/>
</linearGradient>
<linearGradient id="paint18_linear_0_993" x1="1.84754e+06" y1="2.26549e+06" x2="3.77022e+06" y2="2.26549e+06" gradientUnits="userSpaceOnUse">
<stop stop-color="#FF928E"/>
<stop offset="1" stop-color="#FE7062"/>
</linearGradient>
<linearGradient id="paint19_linear_0_993" x1="1.99432e+06" y1="2.804e+06" x2="3.36394e+06" y2="1.31801e+06" gradientUnits="userSpaceOnUse">
<stop stop-color="#E1473D"/>
<stop offset="1" stop-color="#E9605A"/>
</linearGradient>
<linearGradient id="paint20_linear_0_993" x1="2047.87" y1="1367.31" x2="1513.92" y2="2493.93" gradientUnits="userSpaceOnUse">
<stop stop-color="#09005D"/>
<stop offset="1" stop-color="#1A0F91"/>
</linearGradient>
<linearGradient id="paint21_linear_0_993" x1="74449.4" y1="337966" x2="83437.4" y2="378206" gradientUnits="userSpaceOnUse">
<stop stop-color="#FEBBBA"/>
<stop offset="1" stop-color="#FF928E"/>
</linearGradient>
<linearGradient id="paint22_linear_0_993" x1="197407" y1="124409" x2="192334" y2="141622" gradientUnits="userSpaceOnUse">
<stop stop-color="#FEBBBA"/>
<stop offset="1" stop-color="#FF928E"/>
</linearGradient>
<linearGradient id="paint23_linear_0_993" x1="71250.3" y1="762664" x2="-100300" y2="936180" gradientUnits="userSpaceOnUse">
<stop stop-color="#09005D"/>
<stop offset="1" stop-color="#1A0F91"/>
</linearGradient>
<linearGradient id="paint24_linear_0_993" x1="-14883.9" y1="167688" x2="-12872.8" y2="156972" gradientUnits="userSpaceOnUse">
<stop stop-color="#09005D"/>
<stop offset="1" stop-color="#1A0F91"/>
</linearGradient>
<linearGradient id="paint25_linear_0_993" x1="189147" y1="1.0625e+06" x2="337330" y2="1.04551e+06" gradientUnits="userSpaceOnUse">
<stop stop-color="#FEBBBA"/>
<stop offset="1" stop-color="#FF928E"/>
</linearGradient>
<linearGradient id="paint26_linear_0_993" x1="12249.3" y1="245826" x2="8323.97" y2="261837" gradientUnits="userSpaceOnUse">
<stop stop-color="#09005D"/>
<stop offset="1" stop-color="#1A0F91"/>
</linearGradient>
<linearGradient id="paint27_linear_0_993" x1="388665" y1="1.03142e+06" x2="667100" y2="985640" gradientUnits="userSpaceOnUse">
<stop stop-color="#FEBBBA"/>
<stop offset="1" stop-color="#FF928E"/>
</linearGradient>
<linearGradient id="paint28_linear_0_993" x1="383906" y1="493273" x2="368537" y2="510394" gradientUnits="userSpaceOnUse">
<stop stop-color="#4F52FF"/>
<stop offset="1" stop-color="#4042E2"/>
</linearGradient>
<linearGradient id="paint29_linear_0_993" x1="448500" y1="785445" x2="349178" y2="889373" gradientUnits="userSpaceOnUse">
<stop stop-color="#09005D"/>
<stop offset="1" stop-color="#1A0F91"/>
</linearGradient>
<linearGradient id="paint30_linear_0_993" x1="316317" y1="254065" x2="311726" y2="235143" gradientUnits="userSpaceOnUse">
<stop stop-color="#FEBBBA"/>
<stop offset="1" stop-color="#FF928E"/>
</linearGradient>
<linearGradient id="paint31_linear_0_993" x1="442513" y1="231691" x2="424824" y2="190530" gradientUnits="userSpaceOnUse">
<stop stop-color="#FEBBBA"/>
<stop offset="1" stop-color="#FF928E"/>
</linearGradient>
<linearGradient id="paint32_linear_0_993" x1="21703.7" y1="222906" x2="-31315.5" y2="287757" gradientUnits="userSpaceOnUse">
<stop stop-color="#09005D"/>
<stop offset="1" stop-color="#1A0F91"/>
</linearGradient>
<linearGradient id="paint33_linear_0_993" x1="111508" y1="69833.8" x2="105259" y2="58111.6" gradientUnits="userSpaceOnUse">
<stop stop-color="#FEBBBA"/>
<stop offset="1" stop-color="#FF928E"/>
</linearGradient>
<linearGradient id="paint34_linear_0_993" x1="10329.4" y1="431866" x2="-7656.75" y2="431866" gradientUnits="userSpaceOnUse">
<stop stop-color="#FEBBBA"/>
<stop offset="1" stop-color="#FF928E"/>
</linearGradient>
<linearGradient id="paint35_linear_0_993" x1="598136" y1="443656" x2="630260" y2="599536" gradientUnits="userSpaceOnUse">
<stop stop-color="#DAE3FE"/>
<stop offset="1" stop-color="#E9EFFD"/>
</linearGradient>
<linearGradient id="paint36_linear_0_993" x1="120165" y1="45797.4" x2="119757" y2="49577.2" gradientUnits="userSpaceOnUse">
<stop stop-color="#4F52FF"/>
<stop offset="1" stop-color="#4042E2"/>
</linearGradient>
<linearGradient id="paint37_linear_0_993" x1="226595" y1="68068.1" x2="226381" y2="71608.4" gradientUnits="userSpaceOnUse">
<stop stop-color="#4F52FF"/>
<stop offset="1" stop-color="#4042E2"/>
</linearGradient>
<linearGradient id="paint38_linear_0_993" x1="166129" y1="148740" x2="173204" y2="148740" gradientUnits="userSpaceOnUse">
<stop stop-color="#FEBBBA"/>
<stop offset="1" stop-color="#FF928E"/>
</linearGradient>
<linearGradient id="paint39_linear_0_993" x1="867285" y1="530324" x2="901770" y2="569366" gradientUnits="userSpaceOnUse">
<stop stop-color="#FEBBBA"/>
<stop offset="1" stop-color="#FF928E"/>
</linearGradient>
<linearGradient id="paint40_linear_0_993" x1="362076" y1="208832" x2="376749" y2="226304" gradientUnits="userSpaceOnUse">
<stop stop-color="#FEBBBA"/>
<stop offset="1" stop-color="#FF928E"/>
</linearGradient>
<linearGradient id="paint41_linear_0_993" x1="2309.62" y1="1989.51" x2="2279.55" y2="1989.51" gradientUnits="userSpaceOnUse">
<stop stop-color="#F9B776"/>
<stop offset="1" stop-color="#F47960"/>
</linearGradient>
<linearGradient id="paint42_linear_0_993" x1="552798" y1="186751" x2="564043" y2="194755" gradientUnits="userSpaceOnUse">
<stop stop-color="#09005D"/>
<stop offset="1" stop-color="#1A0F91"/>
</linearGradient>
<linearGradient id="paint43_linear_0_993" x1="768430" y1="221402" x2="758842" y2="219641" gradientUnits="userSpaceOnUse">
<stop stop-color="#09005D"/>
<stop offset="1" stop-color="#1A0F91"/>
</linearGradient>
<linearGradient id="paint44_linear_0_993" x1="703308" y1="-427531" x2="792227" y2="-325056" gradientUnits="userSpaceOnUse">
<stop stop-color="#09005D"/>
<stop offset="1" stop-color="#1A0F91"/>
</linearGradient>
<linearGradient id="paint45_linear_0_993" x1="637748" y1="119176" x2="629348" y2="119176" gradientUnits="userSpaceOnUse">
<stop stop-color="#4F52FF"/>
<stop offset="1" stop-color="#4042E2"/>
</linearGradient>
<linearGradient id="paint46_linear_0_993" x1="357422" y1="163266" x2="354823" y2="163266" gradientUnits="userSpaceOnUse">
<stop stop-color="#4F52FF"/>
<stop offset="1" stop-color="#4042E2"/>
</linearGradient>
<linearGradient id="paint47_linear_0_993" x1="487429" y1="189069" x2="486662" y2="182705" gradientUnits="userSpaceOnUse">
<stop stop-color="#FEBBBA"/>
<stop offset="1" stop-color="#FF928E"/>
</linearGradient>
<linearGradient id="paint48_linear_0_993" x1="535949" y1="788821" x2="530226" y2="788821" gradientUnits="userSpaceOnUse">
<stop stop-color="#FEBBBA"/>
<stop offset="1" stop-color="#FF928E"/>
</linearGradient>
<linearGradient id="paint49_linear_0_993" x1="623068" y1="701165" x2="615170" y2="701165" gradientUnits="userSpaceOnUse">
<stop stop-color="#FEBBBA"/>
<stop offset="1" stop-color="#FF928E"/>
</linearGradient>
<linearGradient id="paint50_linear_0_993" x1="1.43097e+06" y1="781469" x2="1.35069e+06" y2="712598" gradientUnits="userSpaceOnUse">
<stop stop-color="#FEBBBA"/>
<stop offset="1" stop-color="#FF928E"/>
</linearGradient>
<linearGradient id="paint51_linear_0_993" x1="442084" y1="247139" x2="378437" y2="419142" gradientUnits="userSpaceOnUse">
<stop stop-color="#4F52FF"/>
<stop offset="1" stop-color="#4042E2"/>
</linearGradient>
<linearGradient id="paint52_linear_0_993" x1="767110" y1="655218" x2="548122" y2="1.0362e+06" gradientUnits="userSpaceOnUse">
<stop stop-color="#4F52FF"/>
<stop offset="1" stop-color="#4042E2"/>
</linearGradient>
<linearGradient id="paint53_linear_0_993" x1="1.07661e+06" y1="309667" x2="1.0789e+06" y2="283462" gradientUnits="userSpaceOnUse">
<stop stop-color="#FEBBBA"/>
<stop offset="1" stop-color="#FF928E"/>
</linearGradient>
<linearGradient id="paint54_linear_0_993" x1="160658" y1="68721.3" x2="160991" y2="62039.5" gradientUnits="userSpaceOnUse">
<stop stop-color="#FEBBBA"/>
<stop offset="1" stop-color="#FF928E"/>
</linearGradient>
<linearGradient id="paint55_linear_0_993" x1="259888" y1="82507.8" x2="260515" y2="76569.9" gradientUnits="userSpaceOnUse">
<stop stop-color="#FEBBBA"/>
<stop offset="1" stop-color="#FF928E"/>
</linearGradient>
<linearGradient id="paint56_linear_0_993" x1="457860" y1="-220988" x2="505848" y2="-153073" gradientUnits="userSpaceOnUse">
<stop stop-color="#09005D"/>
<stop offset="1" stop-color="#1A0F91"/>
</linearGradient>
<linearGradient id="paint57_linear_0_993" x1="1.13465e+06" y1="268859" x2="1.12456e+06" y2="392108" gradientUnits="userSpaceOnUse">
<stop stop-color="#09005D"/>
<stop offset="1" stop-color="#1A0F91"/>
</linearGradient>
<linearGradient id="paint58_linear_0_993" x1="1.6866e+06" y1="124814" x2="1.64371e+06" y2="287886" gradientUnits="userSpaceOnUse">
<stop stop-color="#09005D"/>
<stop offset="1" stop-color="#1A0F91"/>
</linearGradient>
<linearGradient id="paint59_linear_0_993" x1="512324" y1="573774" x2="453737" y2="445590" gradientUnits="userSpaceOnUse">
<stop stop-color="#09005D"/>
<stop offset="1" stop-color="#1A0F91"/>
</linearGradient>
<clipPath id="clip0_0_993">
<rect width="2795.7" height="2800" fill="white"/>
</clipPath>
</defs>
</svg>
