<svg width="2949" height="2913" viewBox="0 0 2949 2913" fill="none" xmlns="http://www.w3.org/2000/svg">
<g clip-path="url(#clip0_0_4448)">
<path d="M1599.34 4.17019C738.24 -63.4298 147.14 703.83 28.2305 1334.17C9.26049 1434.75 -94.2095 1983.21 266.31 2436C648.51 2916 1257.92 2919 1431.21 2911C2049.71 2882.38 2825.26 2449.52 2935.05 1659.9C3047.55 850.7 2431.37 69.4902 1599.34 4.17019Z" fill="#F4F7FA"/>
<path d="M880.56 2485.6C934.03 2480.6 1024.04 2472.19 1101.56 2406.78C1242.56 2287.86 1250.73 2057.73 1201.45 1900.16C1159.12 1764.8 1050.87 1660.31 834.37 1451.32C630.49 1254.49 554 1221 552.6 1126C550.6 990.671 704.19 921.891 678.23 764.351C675.12 745.451 664.42 680.521 614.07 646.581C527.89 588.501 386 662.001 314.14 722.871C244.83 781.641 159.35 897.691 182.49 1010.45C199.26 1092.16 258.8 1102.73 257.15 1174.37C255.49 1246.45 194.71 1257.49 145.22 1366.5C125.44 1410.05 85.75 1497.5 109.94 1584.69C141.22 1697.45 250.99 1707.79 253.11 1796.69C254.63 1860.89 197.82 1876.49 184.38 1947.69C166.67 2041.45 243.55 2128.69 308.5 2200.37C385 2284.8 591.32 2512.63 880.56 2485.6Z" fill="url(#paint0_linear_0_4448)"/>
<g style="mix-blend-mode:screen" opacity="0.16">
<path d="M569.881 678.88C612.341 726.25 428.211 848.88 420.551 1066.47C412.301 1300.54 613.391 1501.67 706.311 1594.61C864.861 1753.19 949.641 1747.61 1038.58 1905.05C1073.78 1967.37 1147.11 2097.22 1101.13 2242.45C1096.86 2255.94 1046.99 2405.67 911.921 2450.16C758.701 2500.62 612.351 2377.32 486.251 2271.09C410.051 2206.89 257.831 2078.65 293.031 1985.62C314.551 1928.75 401.151 1898.12 466.271 1898.75C559.211 1899.63 621.111 1964.29 632.701 1950.84C643.141 1938.73 602.971 1874.62 540.161 1819.31C414.521 1708.67 326.791 1746.31 236.901 1649.79C226.001 1638.09 141.011 1544.11 164.261 1436.94C177.671 1375.13 227.431 1307.33 280.111 1306.54C339.701 1305.64 377.311 1390.85 393.221 1381.86C408.441 1373.28 383.291 1290.16 346.441 1211.64C292.301 1096.26 258.001 1087 244.001 1018.7C222.611 914.57 279.511 824.53 287.881 811.7C366.241 691.51 533.581 638.38 569.881 678.88Z" fill="white"/>
</g>
<path d="M1125.09 2391C1143.09 2426 1040.61 2592.87 905.98 2654.7C878.98 2667.09 830.31 2689.45 777.73 2677.41C713.56 2662.71 716.4 2613.41 649.84 2592.53C588.77 2573.34 572.79 2610.53 496.54 2589.01C467.96 2580.93 409.91 2564.54 398.32 2510.48C391.6 2479.11 406.32 2461.92 395.63 2444.13C376.57 2412.27 324.17 2458.44 266.31 2435.99C235 2423.84 218.81 2397.18 186.42 2343.86C156.94 2295.32 140.32 2267.96 147.88 2233.58C158.97 2183.14 209.64 2174.12 213.88 2138.78C220.68 2081.62 90.7998 2082.35 70.4998 1986.38C57.5598 1925.19 95.9098 1856.61 102.97 1844.47C178.97 1713.67 386.71 1658.47 478.97 1745.28C551.74 1813.69 525.9 1945.08 615.77 1975.95C646.98 1986.67 668.16 1977.03 704.17 2000.04C750.61 2029.73 770.77 2081.17 781.09 2108.47C820.18 2211.89 787.95 2278.56 829.61 2309.17C855.88 2328.46 872.18 2304.53 918.25 2326.6C960.34 2346.76 958.55 2372.41 992.94 2390.44C1054.8 2422.91 1112.89 2367.3 1125.09 2391Z" fill="url(#paint1_linear_0_4448)"/>
<g style="mix-blend-mode:screen" opacity="0.16">
<path d="M212.39 1781C246.01 1737.25 320.73 1730.33 369.74 1742.24C439.87 1759.3 499.61 1825.24 512.6 1896.24C532.81 2006.76 430.6 2078.73 468.76 2138.73C488.89 2170.38 539.62 2185.44 571.88 2171.54C628.6 2147.11 611.02 2040.54 652.05 2030.6C681.39 2023.48 729.1 2068.6 745.4 2121.1C777.97 2226.03 675 2328.1 707.87 2359.31C715.62 2366.67 749.96 2363.26 818.65 2356.42C870.54 2351.26 876.75 2348.21 890.55 2353.7C932.29 2370.3 924.3 2417.62 963.55 2438.18C1008.79 2461.9 1063.65 2422.1 1070.42 2433.7C1077.53 2445.86 1025.88 2504.42 964.98 2530.11C820.67 2590.99 639.48 2460.95 575.6 2415.11C318.1 2230.32 126.68 1892.51 212.39 1781Z" fill="white"/>
</g>
<path d="M2398.2 275.01L2890.79 230.51L2793.83 384.25L2890.79 537.93L2419.24 576.45L2398.2 275.01Z" fill="url(#paint2_linear_0_4448)"/>
<path d="M934.291 351L635.541 269.57V2544.92C635.541 2544.92 828.741 2667.86 934.291 2682.49V351Z" fill="url(#paint3_linear_0_4448)"/>
<path d="M2643.56 202.32L922.351 352.32V2667.76C922.351 2669.8 922.776 2671.82 923.598 2673.69C924.42 2675.56 925.621 2677.24 927.125 2678.62C928.63 2680 930.404 2681.05 932.336 2681.71C934.269 2682.36 936.317 2682.61 938.351 2682.44L2643.55 2533.86L2643.56 202.32Z" fill="url(#paint4_linear_0_4448)"/>
<path opacity="0.64" d="M2557.59 2455.39L1008.32 2590.39V430.76L2557.59 295.76V2455.39ZM1027.42 2569.61L2538.49 2438V316.54L1027.42 448.2V2569.61Z" fill="white"/>
<g style="mix-blend-mode:soft-light" opacity="0.3">
<g style="mix-blend-mode:soft-light" opacity="0.3">
<path d="M2115.08 2275.29C2023.35 2055.51 2143.08 1969.17 2068.52 1709.38C1918.3 1185.76 1324 1159.7 1208.91 702.93C1187.18 616.65 1176.91 492.57 1229.91 325.49L922.37 352.29V2667.76C922.371 2669.8 922.796 2671.82 923.618 2673.69C924.44 2675.56 925.641 2677.24 927.145 2678.62C928.649 2680 930.424 2681.05 932.356 2681.71C934.288 2682.36 936.336 2682.61 938.37 2682.44L2347.19 2559.69C2246.22 2484.84 2163.66 2391.69 2115.08 2275.29Z" fill="white"/>
</g>
</g>
<path d="M1482.2 1110.73L1302.59 1129.54L1270.91 1236.3L1128.31 1251.93L1330.8 677.61L1454 667.33L1651.82 1194.53L1513.6 1209.69L1482.2 1110.73ZM1334.2 1023.49L1451.07 1011.81L1392.61 826.71L1334.2 1023.49Z" fill="white"/>
<path d="M1921.11 981.461L1705.61 1003.15V906.311L1921.11 885.631V981.461Z" fill="white"/>
<path d="M2156.8 1040.8L2395.26 1015.8V1113L2003.8 1155.92V1088L2245.17 699.6L2002.39 721.04V621.58L2392.89 589V653.81L2156.8 1040.8Z" fill="white"/>
<path d="M1297.91 1575.45C1290.92 1585.53 1281.22 1593.72 1268.79 1600.03C1256.36 1606.34 1242.22 1610.5 1226.36 1612.53C1210.04 1614.6 1195.57 1612.71 1182.95 1606.88C1170.33 1601.05 1160.58 1591.61 1153.71 1578.57C1146.84 1565.52 1143.27 1549.77 1143 1531.3V1515.92C1143 1486.26 1150.09 1462.26 1164.27 1443.92C1178.45 1425.58 1198.17 1414.91 1223.42 1411.92C1245.06 1409.37 1262.22 1412.73 1274.91 1422.01C1287.6 1431.29 1295.22 1445.85 1297.78 1465.68L1264.78 1469.68C1261.04 1446.62 1247.47 1436.48 1224.07 1439.27C1208.9 1441.07 1197.36 1447.93 1189.44 1459.86C1181.52 1471.79 1177.43 1488.39 1177.16 1509.68V1524.75C1177.16 1545.91 1181.61 1561.78 1190.51 1572.37C1199.41 1582.96 1211.74 1587.25 1227.51 1585.25C1244.79 1583.08 1257.07 1577.6 1264.35 1568.82V1530.6L1224.3 1535.6V1509.81L1297.86 1500.81L1297.91 1575.45Z" fill="white"/>
<path d="M1368.19 1564.87L1455 1554V1580.83L1334.74 1596.12V1401.5L1368.16 1397.56L1368.19 1564.87Z" fill="white"/>
<path d="M1622.7 1468.53C1622.7 1487.34 1619.52 1504.23 1613.17 1519.22C1606.82 1534.21 1597.72 1546.26 1585.88 1555.38C1573.97 1564.53 1559.8 1570.27 1544.88 1572.01C1529.55 1573.96 1515.88 1571.87 1503.88 1565.76C1491.88 1559.65 1482.58 1549.92 1475.98 1536.57C1469.4 1523.24 1466.07 1507.32 1465.98 1488.82V1477.93C1465.98 1459.07 1469.27 1442.03 1475.84 1426.82C1482.41 1411.61 1491.67 1399.47 1503.62 1390.42C1515.56 1381.37 1529.73 1375.74 1544.62 1374.12C1560 1372.31 1573.61 1374.48 1585.46 1380.61C1597.31 1386.74 1606.45 1396.47 1612.88 1409.8C1619.32 1423.13 1622.58 1439.15 1622.67 1457.86L1622.7 1468.53ZM1590.08 1462.53C1590.08 1441.24 1586.14 1425.39 1578.26 1414.98C1570.38 1404.57 1559.18 1400.23 1544.65 1401.98C1530.46 1403.67 1519.35 1410.67 1511.33 1422.98C1503.31 1435.29 1499.2 1451.82 1499 1472.57V1483.71C1499 1504.92 1503.06 1520.81 1511.18 1531.38C1519.3 1541.95 1530.54 1546.32 1544.89 1544.49C1559.41 1542.66 1570.57 1535.62 1578.37 1523.37C1586.17 1511.12 1590.07 1494.17 1590.06 1472.54L1590.08 1462.53Z" fill="white"/>
<path d="M1752.3 1493.89C1752.3 1485.51 1749.44 1479.4 1743.71 1475.57C1737.98 1471.74 1727.65 1468.42 1712.71 1465.63C1697.73 1462.84 1685.8 1459.13 1676.92 1454.52C1659.91 1445.64 1651.4 1432.38 1651.4 1414.74C1651.4 1399.29 1657.54 1385.84 1669.81 1374.39C1682.08 1362.94 1697.96 1356.07 1717.44 1353.79C1730.35 1352.27 1741.85 1353.36 1751.95 1357.06C1761.58 1360.42 1769.9 1366.75 1775.7 1375.13C1781.44 1383.47 1784.31 1393.14 1784.32 1404.13L1752.32 1407.99C1752.32 1398.03 1749.29 1390.6 1743.23 1385.69C1737.17 1380.78 1728.48 1379 1717.17 1380.34C1706.62 1381.6 1698.42 1384.9 1692.58 1390.23C1686.74 1395.56 1683.82 1402.4 1683.82 1410.73C1683.82 1417.74 1686.98 1423.2 1693.29 1427.12C1699.6 1431.04 1709.99 1434.33 1724.44 1436.99C1738.88 1439.66 1750.46 1443.27 1759.18 1447.82C1767.9 1452.37 1774.29 1458.04 1778.35 1464.82C1782.41 1471.6 1784.44 1479.87 1784.44 1489.64C1784.44 1505.51 1778.54 1518.87 1766.74 1529.74C1754.94 1540.61 1738.88 1547.34 1718.57 1549.93C1705.13 1551.64 1692.76 1550.64 1681.45 1546.93C1670.14 1543.22 1661.34 1537.25 1655.05 1529.02C1648.76 1520.77 1645.62 1510.64 1645.61 1498.61L1678.06 1494.61C1678.06 1505.48 1681.56 1513.46 1688.56 1518.53C1695.56 1523.6 1705.56 1525.32 1718.56 1523.68C1729.78 1522.27 1738.21 1518.87 1743.85 1513.49C1746.56 1511 1748.72 1507.97 1750.17 1504.6C1751.63 1501.22 1752.35 1497.57 1752.3 1493.89Z" fill="white"/>
<path d="M1908.25 1474.45C1908.25 1466.13 1905.43 1460.07 1899.8 1456.26C1894.17 1452.45 1883.98 1449.15 1869.23 1446.36C1854.47 1443.57 1842.72 1439.91 1833.98 1435.36C1817.23 1426.53 1808.86 1413.36 1808.85 1395.85C1808.85 1380.52 1814.89 1367.18 1826.98 1355.85C1839.07 1344.52 1854.7 1337.72 1873.88 1335.45C1886.61 1333.96 1897.94 1335.06 1907.88 1338.73C1917.38 1342.08 1925.57 1348.37 1931.27 1356.68C1936.93 1364.96 1939.76 1374.55 1939.76 1385.46L1908.25 1389.25C1908.25 1379.37 1905.25 1371.99 1899.25 1367.12C1893.25 1362.25 1884.7 1360.47 1873.59 1361.79C1863.2 1363.02 1855.13 1366.29 1849.38 1371.58C1843.63 1376.87 1840.76 1383.65 1840.75 1391.91C1840.75 1398.86 1843.86 1404.29 1850.07 1408.19C1856.28 1412.09 1866.51 1415.36 1880.75 1418.01C1894.97 1420.68 1906.38 1424.27 1914.97 1428.79C1923.56 1433.31 1929.86 1438.94 1933.85 1445.69C1937.85 1452.42 1939.85 1460.63 1939.85 1470.32C1939.85 1486.07 1934.04 1499.33 1922.42 1510.1C1910.8 1520.87 1894.99 1527.5 1875 1530C1861.76 1531.69 1849.58 1530.69 1838.45 1527C1827.32 1523.31 1818.66 1517.38 1812.45 1509.21C1806.25 1501.02 1803.15 1490.95 1803.16 1479.02L1835.11 1475.02C1835.11 1485.8 1838.56 1493.72 1845.45 1498.77C1852.34 1503.82 1862.19 1505.57 1875 1504C1886.05 1502.61 1894.36 1499.24 1899.91 1493.91C1902.59 1491.44 1904.72 1488.42 1906.16 1485.07C1907.59 1481.72 1908.31 1478.1 1908.25 1474.45Z" fill="white"/>
<path d="M2068.52 1459.11L1998.76 1467.82L1984.1 1513.56L1951.36 1517.72L2019.71 1320.79L2047.79 1317.49L2115.63 1496.84L2083.18 1500.97L2068.52 1459.11ZM2007.52 1440.33L2059.72 1433.88L2033.65 1359.07L2007.52 1440.33Z" fill="white"/>
<path d="M2201.15 1414.22L2166.78 1418.47V1490.34L2135.85 1494.27V1307.11L2198.35 1299.75C2218.78 1297.34 2234.53 1300.3 2245.58 1308.64C2256.63 1316.98 2262.16 1330.26 2262.16 1348.48C2262.16 1360.93 2259.32 1371.7 2253.64 1380.79C2247.7 1390.11 2239.51 1397.78 2229.82 1403.09L2269.42 1475.64V1477.3L2236.62 1481.47L2201.15 1414.22ZM2166.78 1392.28L2198.47 1388.41C2208.85 1387.14 2216.96 1383.4 2222.79 1377.18C2228.62 1370.96 2231.53 1363.08 2231.52 1353.54C2231.52 1343.54 2228.83 1336.14 2223.45 1331.35C2218.07 1326.56 2210.03 1324.7 2199.33 1325.77L2166.78 1329.65V1392.28Z" fill="white"/>
<path d="M2342.5 1370.55L2382.61 1278.04L2416.01 1274.1L2357.73 1397.94V1466.08L2327.25 1469.95V1401.7L2268.33 1291.5L2302.23 1287.5L2342.5 1370.55Z" fill="white"/>
<path d="M2642.27 197.38C2642.98 197.616 2643.59 198.091 2643.99 198.723C2644.39 199.355 2644.57 200.106 2644.48 200.851C2644.39 201.595 2644.05 202.286 2643.51 202.809C2642.98 203.331 2642.28 203.653 2641.53 203.72L957.401 355.87C902.322 360.889 846.807 354.07 794.581 335.87L648.761 285C628.691 278 632.411 248.58 653.581 246.79L2342.73 103.64C2346.02 103.357 2349.32 103.751 2352.45 104.8L2368.93 110.32C2371.86 111.308 2374.4 113.193 2376.19 115.705C2377.99 118.218 2378.94 121.232 2378.93 124.32V154.19L2547.57 184.32L2591.96 180.86C2592.39 180.833 2592.83 180.887 2593.24 181.02L2642.27 197.38Z" fill="url(#paint5_linear_0_4448)"/>
<path d="M2379 126.279L2544.6 183.589L894.39 323.809C889.223 324.25 884.02 323.679 879.07 322.129L737.07 277.769C736.403 277.545 735.833 277.099 735.454 276.506C735.074 275.913 734.909 275.208 734.985 274.508C735.061 273.808 735.373 273.155 735.871 272.657C736.368 272.159 737.021 271.846 737.72 271.769L2379 126.279Z" fill="#EFEFEF"/>
<path d="M351.001 1910.23C357.481 1906.81 362.89 1901.67 366.634 1895.37C370.378 1889.07 372.311 1881.86 372.221 1874.53C371.981 1858.22 370.221 1839.45 363.511 1837.34C351.411 1833.54 278.021 1881.34 249.041 1903.57C220.061 1925.8 165.211 1978.28 165.111 1994.63C165.001 2007.79 298.701 1938 351.001 1910.23Z" fill="url(#paint6_linear_0_4448)"/>
<path d="M375.19 1993.18L360.1 1917.8C359.516 1914.9 358.301 1912.15 356.541 1909.77C354.781 1907.39 352.518 1905.42 349.914 1904.01C347.31 1902.6 344.427 1901.78 341.47 1901.6C338.512 1901.43 335.553 1901.9 332.8 1903C329.6 1904.27 326.779 1906.34 324.603 1909.01C322.428 1911.68 320.971 1914.86 320.37 1918.25L302.74 2017.58L375.19 1993.18Z" fill="url(#paint7_linear_0_4448)"/>
<path d="M680.031 2002.15L675.531 1924.68L637.211 1914.27L619.951 1999.29L680.031 2002.15Z" fill="url(#paint8_linear_0_4448)"/>
<path d="M684.361 1960.81C662.231 1987 574.091 1926.32 536.121 1902.41C511.401 1886.85 501.181 1862.78 503.861 1845.66C506.541 1828.54 543.991 1836.35 578.961 1857.4C598.421 1869.12 648.961 1886.48 674.251 1907.87C694.371 1924.9 695.741 1947.35 684.361 1960.81Z" fill="url(#paint9_linear_0_4448)"/>
<path d="M1002.23 2581.9C1052.13 2534.54 1105.14 2455.43 1083.66 2426.12C1050.09 2380.29 878 2515.65 776.92 2460.12C718.73 2428.12 667.44 2323.72 719.57 1987.8L612 1982.43C577.74 2055.58 531.83 2177.82 527.8 2333.33C527.73 2335.86 527.63 2339.69 527.54 2344.62C526.22 2417.74 524.26 2586.76 610.46 2658.82C709.06 2741.22 900.86 2678.11 1002.23 2581.9Z" fill="url(#paint10_linear_0_4448)"/>
<path d="M1167.71 2367.53C1147.07 2357.09 1129.08 2352.53 1110.71 2355.66C1062.18 2363.85 1048.71 2419.06 1002.71 2467.51C945.16 2528.22 869.56 2543.6 847.71 2548.05C713.71 2575.31 600.71 2500.31 580.84 2486.44C578.84 2485.08 577.38 2484 576.34 2483.27C357 2327.27 401.2 1985.34 403.64 1968.4L288.42 1983.79C271.19 2015.88 143.82 2262.73 261.23 2513.65C277.56 2548.53 333.1 2663.29 458.93 2738.09C587.93 2814.81 679.74 2783.41 1002.1 2781.56C1380.51 2779.38 1468.1 2821.41 1500.95 2763.45C1563.68 2652.66 1256.59 2412.47 1167.71 2367.53Z" fill="url(#paint11_linear_0_4448)"/>
<path d="M1932.39 2341.48C1983.12 2297.64 2010.09 2227.39 2010.09 2227.39C2030.72 2183.3 2042.89 2157.29 2037.49 2124.93C2027.56 2065.49 1963.82 2017.35 1903.91 2010.93C1846.83 2004.79 1829.6 2040.4 1764.17 2053.55C1656.43 2075.2 1558.3 2007.75 1539.17 1994.55C1416.43 1910.19 1459.59 1809.47 1348.3 1695.69C1340.6 1687.83 1199.06 1547.5 1023.02 1581.92C873.31 1611.19 747.3 1757.33 746.38 1914.11C745.38 2090.55 902.98 2241.11 1033.92 2262.2C1084.87 2270.42 1149.43 2261.88 1222.51 2307.27C1266.95 2334.88 1283.66 2363.27 1305.19 2385.83C1432.14 2519.05 1762.27 2488.49 1932.39 2341.48Z" fill="#26264F"/>
<path d="M1940.9 2367C1965.9 2374.18 1963.02 2408 2016.59 2482.62C2044.76 2521.89 2067.59 2553.76 2100.59 2576.27C2203.7 2646.64 2319.16 2566.57 2379.32 2634.39C2395.48 2652.62 2412.67 2687.17 2401.32 2712.66C2380.67 2759.12 2280.93 2740.15 1939 2713.31C1800.17 2702.41 1766.41 2701.59 1748.16 2672.31C1691.2 2580.92 1869.08 2346.34 1940.9 2367Z" fill="url(#paint12_linear_0_4448)"/>
<path d="M2339.83 2700.63L1792.29 2705.73C1788.58 2705.77 1784.93 2706.7 1781.66 2708.46C1778.39 2710.21 1775.59 2712.73 1773.5 2715.8L1757.43 2739.47C1755.62 2742.14 1754.57 2745.25 1754.39 2748.47C1754.21 2751.7 1754.91 2754.91 1756.42 2757.76C1757.93 2760.61 1760.19 2763 1762.95 2764.66C1765.72 2766.33 1768.88 2767.21 1772.11 2767.21L2351.83 2767.92L2339.83 2700.63Z" fill="url(#paint13_linear_0_4448)"/>
<path d="M2920.19 2418.65L2355.19 2407.39C2346.97 2407.23 2338.85 2409.2 2331.63 2413.13C2324.41 2417.05 2318.33 2422.78 2313.99 2429.76L2104.99 2766.05L2702.19 2765.74C2710.26 2765.74 2718.2 2763.72 2725.29 2759.88C2732.39 2756.04 2738.42 2750.49 2742.83 2743.74L2935.83 2448.25C2937.7 2445.39 2938.77 2442.08 2938.93 2438.67C2939.09 2435.25 2938.33 2431.86 2936.74 2428.84C2935.14 2425.82 2932.76 2423.28 2929.85 2421.49C2926.94 2419.7 2923.61 2418.72 2920.19 2418.65Z" fill="url(#paint14_linear_0_4448)"/>
<path style="mix-blend-mode:multiply" opacity="0.3" d="M2314 2429.76C2318.34 2422.78 2324.42 2417.05 2331.64 2413.13C2338.86 2409.2 2346.98 2407.23 2355.2 2407.39L2367.58 2407.64C2368.71 2425.94 2373.65 2442.83 2384.27 2456.73C2417.43 2500.12 2476.27 2476.47 2517.65 2522.64C2563.09 2573.35 2517.05 2629.78 2557.65 2676.91C2600.34 2726.52 2673.93 2690.39 2755.57 2724.27L2742.86 2743.73C2738.45 2750.48 2732.42 2756.03 2725.32 2759.87C2718.23 2763.71 2710.29 2765.73 2702.22 2765.73L2105.02 2766.04L2314 2429.76Z" fill="url(#paint15_linear_0_4448)"/>
<path d="M1840.18 2262C1884.62 2278.48 1931.38 2295.23 1957.11 2337.72C2005.22 2417.12 1967.73 2565.05 1899.02 2649.21C1850.94 2708.1 1784.38 2725.1 1653.22 2756.69C1483.22 2797.63 1399.68 2815.26 1333.49 2771.31C1260.93 2723.13 1292.75 2656.68 1185.31 2504.01C1105.01 2389.91 1034.6 2352.23 1046.41 2314.46C1059.56 2272.46 1159.5 2278.46 1197.61 2280.8C1347.45 2289.9 1359.61 2358.28 1455.8 2351.48C1568.68 2343.48 1584.62 2246.99 1722.8 2242.74C1762.8 2241.61 1802.64 2248.15 1840.18 2262Z" fill="url(#paint16_linear_0_4448)"/>
<path d="M1840.18 2262C1884.62 2278.48 1931.38 2295.23 1957.11 2337.72C2005.22 2417.12 1967.73 2565.05 1899.02 2649.21C1850.94 2708.1 1784.38 2725.1 1653.22 2756.69C1483.22 2797.63 1399.68 2815.26 1333.49 2771.31C1260.93 2723.13 1292.75 2656.68 1185.31 2504.01C1105.01 2389.91 1034.6 2352.23 1046.41 2314.46C1059.56 2272.46 1159.5 2278.46 1197.61 2280.8C1347.45 2289.9 1359.61 2358.28 1455.8 2351.48C1568.68 2343.48 1584.62 2246.99 1722.8 2242.74C1762.8 2241.61 1802.64 2248.15 1840.18 2262Z" fill="url(#paint17_linear_0_4448)"/>
<path style="mix-blend-mode:multiply" opacity="0.3" d="M1313.62 2542.49C1373.62 2578.63 1413.95 2530.13 1543.31 2526.42C1720.71 2521.33 1780.41 2608.66 1883.7 2568.04C1908.85 2558.15 1939.47 2539.41 1969.55 2501.35C1956.74 2555.56 1931.44 2609.47 1899.02 2649.18C1850.94 2708.07 1784.38 2725.07 1653.22 2756.66C1483.22 2797.6 1399.68 2815.23 1333.49 2771.28C1260.93 2723.1 1292.76 2656.65 1185.31 2503.98C1105.01 2389.88 1034.6 2352.2 1046.41 2314.43C1049.01 2306.1 1055.12 2299.72 1063.41 2294.77C1131.19 2305.83 1175.28 2331.68 1204.63 2362.49C1267.88 2428.9 1248.44 2503.21 1313.62 2542.49Z" fill="url(#paint18_linear_0_4448)"/>
<path d="M1881 2285.06C1893.61 2292.06 1914.77 2304.2 1922.27 2320.37C1935.9 2349.77 1909.38 2404.37 1877.8 2409.62C1851.68 2413.99 1841 2381.47 1776.33 2330.32C1717.45 2283.76 1678.21 2272.67 1681.33 2258.39C1683.33 2249.24 1702.52 2239.73 1783.92 2240.91C1796.42 2224.67 1829.3 2197.5 1841.8 2181.25C1859.54 2184.78 1856.89 2199.25 1874.64 2202.78C1844.78 2240.45 1843.84 2257.94 1848.95 2266.92C1853.37 2274.71 1861.25 2274.17 1881 2285.06Z" fill="url(#paint19_linear_0_4448)"/>
<path d="M1836.19 2183C1836.19 2183 1834.19 2230.18 1871.29 2247C1904.48 2262.07 1951.85 2184.61 1939.52 2158.38C1935.41 2149.64 1922.52 2139.04 1909.69 2136.21C1900.69 2134.21 1863.06 2132.51 1851.24 2161.66C1848.43 2152.19 1842.36 2145.88 1835.84 2145.55C1833.54 2145.56 1831.29 2146.21 1829.34 2147.43C1820.46 2153.3 1822.35 2167.8 1836.19 2183Z" fill="url(#paint20_linear_0_4448)"/>
<path d="M2020.34 2707C2027.65 2699 2006.14 2653.63 1966.6 2636.74C1924.78 2618.86 1883.01 2641.5 1876.26 2645.3L1879.67 2677.14C1906.21 2675.97 1932.76 2679.03 1958.33 2686.21C1997 2697.13 2015.11 2712.69 2020.34 2707Z" fill="url(#paint21_linear_0_4448)"/>
<path d="M1879.35 2635.6C1849.01 2625.31 1817.8 2617.79 1786.1 2613.11C1708.6 2601.69 1679.71 2615.06 1643.84 2593.86C1611.64 2574.86 1582.59 2533.1 1581.59 2490.01C1579.89 2416.46 1660.93 2382.67 1658.64 2290.14C1658.15 2270.36 1654.29 2265.24 1651.35 2262.66C1619.74 2234.77 1476.11 2306.34 1408.69 2422.56C1393.06 2449.49 1325.05 2576.19 1383.8 2683.06C1450.69 2804.72 1638.95 2822.59 1761.05 2768.27C1818.57 2742.68 1856.22 2703.39 1877.72 2676.37C1878.27 2662.79 1878.82 2649.2 1879.35 2635.6Z" fill="url(#paint22_linear_0_4448)"/>
</g>
<defs>
<linearGradient id="paint0_linear_0_4448" x1="516.232" y1="1006.58" x2="1048.14" y2="3750.66" gradientUnits="userSpaceOnUse">
<stop stop-color="#AA80F9"/>
<stop offset="1" stop-color="#6165D7"/>
</linearGradient>
<linearGradient id="paint1_linear_0_4448" x1="540.628" y1="2174.96" x2="1795.5" y2="2433.47" gradientUnits="userSpaceOnUse">
<stop stop-color="#FF9085"/>
<stop offset="1" stop-color="#FB6FBB"/>
</linearGradient>
<linearGradient id="paint2_linear_0_4448" x1="2983.67" y1="44.0698" x2="2326.29" y2="746.47" gradientUnits="userSpaceOnUse">
<stop stop-color="#E38DDD"/>
<stop offset="1" stop-color="#9571F6"/>
</linearGradient>
<linearGradient id="paint3_linear_0_4448" x1="268.841" y1="1391.03" x2="1949.94" y2="1668.03" gradientUnits="userSpaceOnUse">
<stop stop-color="#FFC444"/>
<stop offset="1" stop-color="#F36F56"/>
</linearGradient>
<linearGradient id="paint4_linear_0_4448" x1="2.38919e+06" y1="3.88941e+06" x2="8.44516e+06" y2="2.56033e+06" gradientUnits="userSpaceOnUse">
<stop stop-color="#FFC444"/>
<stop offset="1" stop-color="#F36F56"/>
</linearGradient>
<linearGradient id="paint5_linear_0_4448" x1="4.8123e+06" y1="-146327" x2="4.71531e+06" y2="673571" gradientUnits="userSpaceOnUse">
<stop stop-color="#FFC444"/>
<stop offset="1" stop-color="#F36F56"/>
</linearGradient>
<linearGradient id="paint6_linear_0_4448" x1="369.289" y1="1922.54" x2="166.989" y2="1914.45" gradientUnits="userSpaceOnUse">
<stop stop-color="#AB316D"/>
<stop offset="1" stop-color="#792D3D"/>
</linearGradient>
<linearGradient id="paint7_linear_0_4448" x1="5901.74" y1="218283" x2="-17156.6" y2="355936" gradientUnits="userSpaceOnUse">
<stop stop-color="#FFC444"/>
<stop offset="1" stop-color="#F36F56"/>
</linearGradient>
<linearGradient id="paint8_linear_0_4448" x1="35286" y1="174553" x2="43348.6" y2="280016" gradientUnits="userSpaceOnUse">
<stop stop-color="#FFC444"/>
<stop offset="1" stop-color="#F36F56"/>
</linearGradient>
<linearGradient id="paint9_linear_0_4448" x1="63700.1" y1="261822" x2="32504" y2="267870" gradientUnits="userSpaceOnUse">
<stop stop-color="#AB316D"/>
<stop offset="1" stop-color="#792D3D"/>
</linearGradient>
<linearGradient id="paint10_linear_0_4448" x1="242818" y1="1.40011e+06" x2="472635" y2="1.88394e+06" gradientUnits="userSpaceOnUse">
<stop stop-color="#AB316D"/>
<stop offset="1" stop-color="#792D3D"/>
</linearGradient>
<linearGradient id="paint11_linear_0_4448" x1="-966831" y1="1.97502e+06" x2="-816009" y2="2.5739e+06" gradientUnits="userSpaceOnUse">
<stop stop-color="#AB316D"/>
<stop offset="1" stop-color="#792D3D"/>
</linearGradient>
<linearGradient id="paint12_linear_0_4448" x1="1.48587e+06" y1="994690" x2="1.0383e+06" y2="976787" gradientUnits="userSpaceOnUse">
<stop stop-color="#AA80F9"/>
<stop offset="1" stop-color="#6165D7"/>
</linearGradient>
<linearGradient id="paint13_linear_0_4448" x1="2352.63" y1="2749.29" x2="1754.83" y2="2725.38" gradientUnits="userSpaceOnUse">
<stop stop-color="#40447E"/>
<stop offset="1" stop-color="#3C3B6B"/>
</linearGradient>
<linearGradient id="paint14_linear_0_4448" x1="-2.17861e+06" y1="823201" x2="-2.076e+06" y2="1.05988e+06" gradientUnits="userSpaceOnUse">
<stop stop-color="#40447E"/>
<stop offset="1" stop-color="#3C3B6B"/>
</linearGradient>
<linearGradient id="paint15_linear_0_4448" x1="-1.69901e+06" y1="823178" x2="-1.57963e+06" y2="1.03798e+06" gradientUnits="userSpaceOnUse">
<stop stop-color="#40447E"/>
<stop offset="1" stop-color="#3C3B6B"/>
</linearGradient>
<linearGradient id="paint16_linear_0_4448" x1="1.36667e+06" y1="1.20972e+06" x2="1.20298e+06" y2="1.72162e+06" gradientUnits="userSpaceOnUse">
<stop stop-color="#AA80F9"/>
<stop offset="1" stop-color="#6165D7"/>
</linearGradient>
<linearGradient id="paint17_linear_0_4448" x1="1.36667e+06" y1="1.20972e+06" x2="1.20298e+06" y2="1.72162e+06" gradientUnits="userSpaceOnUse">
<stop stop-color="#AA80F9"/>
<stop offset="1" stop-color="#6165D7"/>
</linearGradient>
<linearGradient id="paint18_linear_0_4448" x1="1.35699e+06" y1="1.10085e+06" x2="1.21812e+06" y2="1.57043e+06" gradientUnits="userSpaceOnUse">
<stop stop-color="#AA80F9"/>
<stop offset="1" stop-color="#6165D7"/>
</linearGradient>
<linearGradient id="paint19_linear_0_4448" x1="372974" y1="603577" x2="400691" y2="431438" gradientUnits="userSpaceOnUse">
<stop stop-color="#FFC444"/>
<stop offset="1" stop-color="#F36F56"/>
</linearGradient>
<linearGradient id="paint20_linear_0_4448" x1="1938.91" y1="2300.26" x2="1754.77" y2="1878.29" gradientUnits="userSpaceOnUse">
<stop stop-color="#FFC444"/>
<stop offset="0.79" stop-color="#F68152"/>
<stop offset="1" stop-color="#F36F56"/>
</linearGradient>
<linearGradient id="paint21_linear_0_4448" x1="266558" y1="217403" x2="245079" y2="216544" gradientUnits="userSpaceOnUse">
<stop stop-color="#FFC444"/>
<stop offset="1" stop-color="#F36F56"/>
</linearGradient>
<linearGradient id="paint22_linear_0_4448" x1="801839" y1="1.39151e+06" x2="562825" y2="1.34275e+06" gradientUnits="userSpaceOnUse">
<stop stop-color="#AA80F9"/>
<stop offset="1" stop-color="#6165D7"/>
</linearGradient>
<clipPath id="clip0_0_4448">
<rect width="2948.32" height="2912.61" fill="white"/>
</clipPath>
</defs>
</svg>
